<svg width="24" height="24" viewBox="0 0 24 24" fill="none" xmlns="http://www.w3.org/2000/svg">
<path d="M4.8125 20.625C4.44514 20.625 4.11372 20.4813 3.81823 20.1938C3.52274 19.9062 3.375 19.5708 3.375 19.1875V4.8125C3.375 4.44514 3.52274 4.11372 3.81823 3.81823C4.11372 3.52274 4.44514 3.375 4.8125 3.375H19.1875C19.5708 3.375 19.9062 3.52274 20.1938 3.81823C20.4813 4.11372 20.625 4.44514 20.625 4.8125V6.10625H13.3896C12.4632 6.10625 11.6965 6.40971 11.0896 7.01667C10.4826 7.62363 10.1792 8.38229 10.1792 9.29271V14.7312C10.1792 15.6417 10.4826 16.4003 11.0896 17.0073C11.6965 17.6143 12.4632 17.9177 13.3896 17.9177H20.625V19.1875C20.625 19.5708 20.4813 19.9062 20.1938 20.1938C19.9062 20.4813 19.5708 20.625 19.1875 20.625H4.8125ZM13.3896 16.4802C12.8465 16.4802 12.4153 16.3205 12.0958 16.001C11.7764 15.6816 11.6167 15.2583 11.6167 14.7312V9.29271C11.6167 8.74967 11.7764 8.3224 12.0958 8.01094C12.4153 7.69948 12.8465 7.54375 13.3896 7.54375H19.8344C20.3774 7.54375 20.8087 7.69948 21.1281 8.01094C21.4476 8.3224 21.6073 8.74967 21.6073 9.29271V14.7312C21.6073 15.2583 21.4476 15.6816 21.1281 16.001C20.8087 16.3205 20.3774 16.4802 19.8344 16.4802H13.3896ZM16.1208 13.5333C16.5201 13.5333 16.8755 13.3776 17.187 13.0661C17.4984 12.7547 17.6542 12.3913 17.6542 11.976C17.6542 11.5768 17.4984 11.2253 17.187 10.9219C16.8755 10.6184 16.5201 10.4667 16.1208 10.4667C15.7215 10.4667 15.3661 10.6184 15.0547 10.9219C14.7432 11.2253 14.5875 11.5768 14.5875 11.976C14.5875 12.3913 14.7432 12.7547 15.0547 13.0661C15.3661 13.3776 15.7215 13.5333 16.1208 13.5333Z" fill="white"/>
</svg>
