<svg width="24" height="24" viewBox="0 0 24 24" fill="none" xmlns="http://www.w3.org/2000/svg">
<path d="M2.89584 19.6666C2.50053 19.6666 2.16216 19.5259 1.88073 19.2443C1.59914 18.9628 1.45834 18.6245 1.45834 18.2291V7.20831H2.89584V18.2291H19.6667V19.6666H2.89584ZM5.77084 16.7916C5.37553 16.7916 5.03716 16.6509 4.75573 16.3693C4.47414 16.0878 4.33334 15.7495 4.33334 15.3541V5.77081C4.33334 5.3755 4.47414 5.03705 4.75573 4.75546C5.03716 4.47403 5.37553 4.33331 5.77084 4.33331H21.1042C21.4995 4.33331 21.8379 4.47403 22.1195 4.75546C22.4009 5.03705 22.5417 5.3755 22.5417 5.77081V15.3541C22.5417 15.7495 22.4009 16.0878 22.1195 16.3693C21.8379 16.6509 21.4995 16.7916 21.1042 16.7916H5.77084ZM8.16668 15.3541C8.16668 14.6833 7.9351 14.1163 7.47189 13.6531C7.00867 13.1899 6.44168 12.9583 5.77084 12.9583V15.3541H8.16668ZM18.7083 15.3541H21.1042V12.9583C20.4333 12.9583 19.8663 13.1899 19.4031 13.6531C18.9399 14.1163 18.7083 14.6833 18.7083 15.3541ZM13.4375 13.4375C14.2361 13.4375 14.9149 13.158 15.474 12.5989C16.033 12.0399 16.3125 11.3611 16.3125 10.5625C16.3125 9.76385 16.033 9.08507 15.474 8.52602C14.9149 7.96698 14.2361 7.68748 13.4375 7.68748C12.6389 7.68748 11.9601 7.96698 11.4011 8.52602C10.842 9.08507 10.5625 9.76385 10.5625 10.5625C10.5625 11.3611 10.842 12.0399 11.4011 12.5989C11.9601 13.158 12.6389 13.4375 13.4375 13.4375ZM5.77084 8.16665C6.44168 8.16665 7.00867 7.93507 7.47189 7.47185C7.9351 7.00864 8.16668 6.44165 8.16668 5.77081H5.77084V8.16665ZM21.1042 8.16665V5.77081H18.7083C18.7083 6.44165 18.9399 7.00864 19.4031 7.47185C19.8663 7.93507 20.4333 8.16665 21.1042 8.16665Z" fill="white"/>
</svg>
