<svg width="20" height="16" viewBox="0 0 20 16" fill="none" xmlns="http://www.w3.org/2000/svg">
<path fill-rule="evenodd" clip-rule="evenodd" d="M2.14286 0.5C1.57454 0.5 1.02949 0.725765 0.627628 1.12763C0.225765 1.52949 0 2.07454 0 2.64286L0 3.98571H20V2.64286C20 2.07454 19.7742 1.52949 19.3724 1.12763C18.9705 0.725765 18.4255 0.5 17.8571 0.5H2.14286ZM0 13.3571V5.77143H20V13.3571C20 13.6385 19.9446 13.9172 19.8369 14.1772C19.7292 14.4372 19.5714 14.6734 19.3724 14.8724C19.1734 15.0714 18.9372 15.2292 18.6772 15.3369C18.4172 15.4446 18.1385 15.5 17.8571 15.5H2.14286C1.86145 15.5 1.5828 15.4446 1.32282 15.3369C1.06284 15.2292 0.826611 15.0714 0.627628 14.8724C0.428646 14.6734 0.270804 14.4372 0.163115 14.1772C0.0554266 13.9172 0 13.6385 0 13.3571ZM13.5714 10.3214C13.3346 10.3214 13.1075 10.4155 12.9401 10.5829C12.7726 10.7504 12.6786 10.9775 12.6786 11.2143C12.6786 11.4511 12.7726 11.6782 12.9401 11.8456C13.1075 12.0131 13.3346 12.1071 13.5714 12.1071H15.7143C15.9511 12.1071 16.1782 12.0131 16.3456 11.8456C16.5131 11.6782 16.6071 11.4511 16.6071 11.2143C16.6071 10.9775 16.5131 10.7504 16.3456 10.5829C16.1782 10.4155 15.9511 10.3214 15.7143 10.3214H13.5714Z" fill="#0870D9"/>
</svg>
