<svg width="20" height="18" viewBox="0 0 20 18" fill="none" xmlns="http://www.w3.org/2000/svg">
<path fill-rule="evenodd" clip-rule="evenodd" d="M11.4286 0C10.6396 0 10 0.6396 10 1.42857V2.09821H10.7143C12.884 2.09821 14.6429 3.8571 14.6429 6.02679V6.25H20V1.42857C20 0.6396 19.3604 0 18.5714 0H11.4286ZM11.273 16.959C11.3738 16.6669 11.4286 16.3531 11.4286 16.0269C11.4286 15.8853 11.4183 15.7463 11.3984 15.6103C13.242 15.2866 14.6429 13.6774 14.6429 11.7411V8.03571H20V15.7143C20 16.5033 19.3604 17.1429 18.5714 17.1429H12.1429C11.8332 17.1429 11.5389 17.0771 11.273 16.959ZM18.1027 3.125C18.1027 3.72906 17.613 4.21874 17.0089 4.21874C16.4049 4.21874 15.9151 3.72906 15.9151 3.125C15.9151 2.52094 16.4049 2.03126 17.0089 2.03126C17.613 2.03126 18.1027 2.52094 18.1027 3.125ZM0 6.02679C0 4.84331 0.95939 3.88393 2.14286 3.88393H10.7143C11.8978 3.88393 12.8571 4.84331 12.8571 6.02679V11.7411C12.8571 12.9246 11.8978 13.884 10.7143 13.884H7.5V14.9554H8.57143C9.16316 14.9554 9.64286 15.435 9.64286 16.0269C9.64286 16.6186 9.16316 17.0983 8.57143 17.0983H4.28571C3.69399 17.0983 3.21429 16.6186 3.21429 16.0269C3.21429 15.435 3.69399 14.9554 4.28571 14.9554H5.35714V13.884H2.14286C0.95939 13.884 0 12.9246 0 11.7411V6.02679Z" fill="#0870D9"/>
</svg>
