<svg width="18" height="18" viewBox="0 0 18 18" fill="none" xmlns="http://www.w3.org/2000/svg">
<path fill-rule="evenodd" clip-rule="evenodd" d="M4.83814 0.754664C5.25987 0.332639 5.83195 0.0953907 6.42857 0.0950928H11.5714C12.1682 0.0950928 12.7405 0.332146 13.1624 0.754103C13.5844 1.17606 13.8214 1.74836 13.8214 2.34509V3.85709H16.0714C16.5829 3.85709 17.0735 4.06028 17.4351 4.42196C17.7968 4.78364 18 5.27418 18 5.78566V16.0714C18 16.5829 17.7968 17.0734 17.4351 17.4351C17.0735 17.7968 16.5829 18 16.0714 18H1.92857C1.41708 18 0.926543 17.7968 0.564865 17.4351C0.203188 17.0734 0 16.5829 0 16.0714L0 5.78566C0 5.5324 0.049884 5.28162 0.146804 5.04763C0.243724 4.81365 0.385781 4.60104 0.564865 4.42196C0.926543 4.06028 1.41708 3.85709 1.92857 3.85709H4.17857V2.34509C4.17857 1.74852 4.41514 1.17509 4.83814 0.754664ZM11.8929 2.34509V3.85709H6.10714V2.34509C6.10714 2.25984 6.14101 2.17809 6.20129 2.11781C6.26157 2.05753 6.34332 2.02366 6.42857 2.02366H11.5714C11.6567 2.02366 11.7384 2.05753 11.7987 2.11781C11.859 2.17809 11.8929 2.25984 11.8929 2.34509ZM9.96429 6.10709C9.96429 5.85135 9.86269 5.60608 9.68185 5.42524C9.50101 5.2444 9.25574 5.14281 9 5.14281C8.74426 5.14281 8.49899 5.2444 8.31815 5.42524C8.13731 5.60608 8.03571 5.85135 8.03571 6.10709V6.76281C7.46878 6.82285 6.94175 7.08283 6.54908 7.49615C6.1564 7.90946 5.92375 8.44911 5.8928 9.01837C5.86186 9.58764 6.03464 10.1493 6.38019 10.6028C6.72575 11.0562 7.22149 11.3718 7.77857 11.4929L9.67371 11.9069C9.83079 11.9387 9.97033 12.0281 10.065 12.1574C10.1596 12.2867 10.2025 12.4468 10.1853 12.6061C10.1681 12.7654 10.092 12.9126 9.97188 13.0187C9.85179 13.1249 9.69639 13.1823 9.53614 13.1798H8.46386C8.3309 13.1796 8.20127 13.1382 8.09282 13.0613C7.98437 12.9844 7.90243 12.8758 7.85829 12.7504C7.77304 12.5091 7.59544 12.3116 7.36457 12.2013C7.1337 12.091 6.86847 12.0769 6.62721 12.1622C6.38596 12.2474 6.18846 12.425 6.07814 12.6559C5.96783 12.8867 5.95375 13.152 6.039 13.3932C6.34629 14.2598 7.10614 14.9155 8.03571 15.0711V15.7499C8.03571 16.0057 8.13731 16.251 8.31815 16.4318C8.49899 16.6126 8.74426 16.7142 9 16.7142C9.25574 16.7142 9.50101 16.6126 9.68185 16.4318C9.86269 16.251 9.96429 16.0057 9.96429 15.7499V15.0711C10.5528 14.971 11.0881 14.6693 11.4786 14.2179C11.8691 13.7664 12.0905 13.1931 12.1048 12.5964C12.1191 11.9996 11.9254 11.4165 11.5569 10.9468C11.1885 10.4772 10.6682 10.1502 10.0851 10.0221L8.19129 9.60809C8.07864 9.58265 7.97928 9.51668 7.91212 9.42273C7.84497 9.32878 7.8147 9.21342 7.82709 9.09861C7.83948 8.98379 7.89365 8.87754 7.9793 8.80007C8.06495 8.72261 8.17609 8.67935 8.29157 8.67852H9.53614C9.66908 8.67803 9.79885 8.71901 9.9074 8.79575C10.0159 8.87249 10.0978 8.98118 10.1417 9.10666C10.1839 9.22612 10.2493 9.33609 10.334 9.4303C10.4187 9.52451 10.5211 9.60111 10.6354 9.65573C10.7497 9.71035 10.8737 9.74192 11.0002 9.74864C11.1267 9.75536 11.2533 9.73709 11.3728 9.69488C11.4922 9.65267 11.6022 9.58734 11.6964 9.50263C11.7906 9.41792 11.8672 9.31548 11.9219 9.20117C11.9765 9.08685 12.008 8.9629 12.0148 8.83638C12.0215 8.70986 12.0032 8.58326 11.961 8.46381C11.8078 8.03174 11.542 7.64847 11.1909 7.35369C10.8398 7.05892 10.4163 6.86335 9.96429 6.78724V6.10709Z" fill="#0870D9"/>
</svg>
