<svg width="18" height="15" viewBox="0 0 18 15" fill="none" xmlns="http://www.w3.org/2000/svg">
<path fill-rule="evenodd" clip-rule="evenodd" d="M9.52665 0.274204C9.40635 0.102356 9.20978 0 9 0C8.79022 0 8.59365 0.102356 8.47335 0.274204L4.41276 6.07505L1.09743 2.75972C0.913569 2.57586 0.637065 2.52086 0.396846 2.62036C0.156627 2.71986 0 2.95428 0 3.21429V11.5714C0 12.2534 0.270918 12.9074 0.753153 13.3897C1.23539 13.872 1.88945 14.1429 2.57143 14.1429H15.4286C16.1105 14.1429 16.7646 13.872 17.2468 13.3897C17.7291 12.9074 18 12.2534 18 11.5714V3.21429C18 2.95428 17.8434 2.71986 17.6031 2.62036C17.3629 2.52086 17.0864 2.57586 16.9025 2.75972L13.5873 6.07505L9.52665 0.274204Z" fill="#0870D9"/>
</svg>
