<svg width="23" height="15" viewBox="0 0 23 15" fill="none" xmlns="http://www.w3.org/2000/svg">
<path d="M11.2386 11.7857H11.9966V10.9286C12.4845 10.8572 12.8983 10.6518 13.2381 10.3125C13.5778 9.97323 13.7477 9.53571 13.7477 9C13.7477 8.5357 13.5735 8.1473 13.225 7.83482C12.8765 7.52234 12.4758 7.26787 12.0227 7.07143V5.08929C12.197 5.14286 12.3407 5.23216 12.454 5.35714C12.5673 5.48212 12.65 5.63395 12.7023 5.8125L13.6432 5.41071C13.5212 5.03571 13.3121 4.73662 13.0159 4.51339C12.7197 4.29016 12.3886 4.14284 12.0227 4.07143V3.21429H11.2386V4.04464C10.7508 4.09821 10.3369 4.28127 9.99716 4.59375C9.65739 4.90623 9.4875 5.32141 9.4875 5.83929C9.4875 6.32143 9.66612 6.72321 10.0233 7.04464C10.3805 7.36607 10.7856 7.62498 11.2386 7.82143V9.9375C10.9599 9.8482 10.7246 9.69643 10.533 9.48214C10.3413 9.26786 10.2106 9.01784 10.1409 8.73214L9.22614 9.13393C9.36555 9.63391 9.60945 10.0446 9.95796 10.3661C10.3065 10.6875 10.7333 10.8839 11.2386 10.9554V11.7857ZM12.0227 9.91071V8.14286C12.2144 8.23216 12.3843 8.3393 12.5324 8.46428C12.6805 8.58927 12.7545 8.77677 12.7545 9.02679C12.7545 9.31248 12.6849 9.51338 12.5455 9.62946C12.406 9.74555 12.2318 9.8393 12.0227 9.91071ZM11.2386 6.72321C11.047 6.63391 10.8727 6.52677 10.7159 6.40179C10.5591 6.2768 10.4807 6.0893 10.4807 5.83929C10.4807 5.58927 10.5591 5.40627 10.7159 5.29018C10.8727 5.17409 11.047 5.09823 11.2386 5.0625V6.72321ZM7.31818 15C5.27955 15 3.55019 14.2723 2.13011 12.817C0.710036 11.3616 0 9.58928 0 7.5C0 5.41071 0.710036 3.63841 2.13011 2.18304C3.55019 0.727661 5.27955 0 7.31818 0H15.6818C17.7205 0 19.4498 0.727661 20.8699 2.18304C22.29 3.63841 23 5.41071 23 7.5C23 9.58928 22.29 11.3616 20.8699 12.817C19.4498 14.2723 17.7205 15 15.6818 15H7.31818Z" fill="#0870D9"/>
</svg>
