<svg width="20" height="20" viewBox="0 0 20 20" fill="none" xmlns="http://www.w3.org/2000/svg">
<path d="M0 14C0 12.3485 0.704546 11.053 2.11364 10.1136C3.52273 9.17423 5.12123 8.70455 6.90909 8.70455C8.69696 8.70455 10.2955 9.17423 11.7045 10.1136C13.1136 11.053 13.8182 12.3485 13.8182 14H0ZM0 17V15.4545H13.8182V17H0ZM0.681818 20C0.488636 20 0.326741 19.9346 0.196136 19.8039C0.0653773 19.6733 0 19.5114 0 19.3182V18.4545H13.8182V19.3182C13.8182 19.5114 13.7529 19.6733 13.6223 19.8039C13.4915 19.9346 13.3295 20 13.1364 20H0.681818ZM15.1818 20V13.75C15.1818 12.1523 14.6477 10.7717 13.5795 9.60841C12.5114 8.44523 11.1894 7.70455 9.61364 7.38636L9.22727 4.09091H13.8864V0H15.25V4.09091H20L18.4545 18.7727C18.4195 19.125 18.2706 19.4176 18.0077 19.6505C17.745 19.8835 17.4394 20 17.0909 20H15.1818Z" fill="#0870D9"/>
</svg>
