<svg width="17" height="16" viewBox="0 0 17 16" fill="none" xmlns="http://www.w3.org/2000/svg">
<path d="M0 16V14.6667H15.1111V16H0ZM13.3167 4.88889H15.5833V1.33333H13.3167V4.88889ZM3.56528 12.8889C2.57361 12.8889 1.7315 12.5667 1.03889 11.9222C0.346295 11.2778 0 10.4889 0 9.55556V0H4.65139V2.06667L2.95139 3.35556C2.90417 3.3852 2.83333 3.51853 2.73889 3.75556V7.08889C2.73889 7.23111 2.794 7.35556 2.90417 7.46222C3.01434 7.56889 3.156 7.62222 3.32917 7.62222H6.89444C7.06761 7.62222 7.20928 7.56889 7.31945 7.46222C7.42961 7.35556 7.48472 7.23111 7.48472 7.08889V3.75556C7.48472 3.71111 7.41389 3.57778 7.27222 3.35556L5.59583 2.06667V0H15.5833C15.9729 0 16.3064 0.13052 16.584 0.391556C16.8613 0.652742 17 0.966667 17 1.33333V4.88889C17 5.25556 16.8613 5.56942 16.584 5.83044C16.3064 6.09164 15.9729 6.22222 15.5833 6.22222H13.3167V9.55556C13.3167 10.4889 12.9704 11.2778 12.2778 11.9222C11.5852 12.5667 10.7431 12.8889 9.75139 12.8889H3.56528Z" fill="#0870D9"/>
</svg>
