<svg width="18" height="18" viewBox="0 0 18 18" fill="none" xmlns="http://www.w3.org/2000/svg">
<path d="M9 18C7.47274 18 6.00001 17.55 4.58182 16.65C3.16363 15.75 2.04545 14.7204 1.22727 13.5614V16.3636H0V11.4545H4.90909V12.6818H2.10682C2.80227 13.7318 3.79432 14.6761 5.08295 15.5148C6.37159 16.3534 7.67729 16.7727 9 16.7727C10.0636 16.7727 11.0693 16.5682 12.017 16.1591C12.9648 15.75 13.7898 15.1943 14.492 14.492C15.1943 13.7898 15.75 12.9648 16.1591 12.017C16.5682 11.0693 16.7727 10.0636 16.7727 9H18C18 10.2409 17.7648 11.4068 17.2943 12.4977C16.8239 13.5886 16.1795 14.5432 15.3614 15.3614C14.5432 16.1795 13.5886 16.8239 12.4977 17.2943C11.4068 17.7648 10.2409 18 9 18ZM8.40682 14.8705V13.7659C7.79318 13.6023 7.27842 13.3398 6.8625 12.9784C6.44658 12.6171 6.09545 12.1227 5.80909 11.4955L6.85227 11.1477C7.01591 11.6659 7.30567 12.075 7.72159 12.375C8.13751 12.675 8.61136 12.825 9.14318 12.825C9.68862 12.825 10.1421 12.692 10.5034 12.4261C10.8648 12.1602 11.0455 11.8091 11.0455 11.3727C11.0455 10.9227 10.875 10.5443 10.5341 10.2375C10.1932 9.93068 9.5659 9.58635 8.65227 9.20455C7.83409 8.86365 7.22045 8.49547 6.81136 8.1C6.40227 7.70453 6.19773 7.17271 6.19773 6.50454C6.19773 5.90453 6.40227 5.39317 6.81136 4.97045C7.22045 4.54774 7.76589 4.28862 8.44773 4.19318V3.15H9.57273V4.19318C10.0909 4.24771 10.5409 4.41135 10.9227 4.68409C11.3045 4.95683 11.6113 5.3318 11.8432 5.80909L10.8614 6.27955C10.6568 5.89774 10.4045 5.61138 10.1045 5.42045C9.80456 5.22953 9.45 5.13409 9.04091 5.13409C8.50909 5.13409 8.08977 5.25682 7.78295 5.50227C7.47614 5.74773 7.32273 6.08183 7.32273 6.50454C7.32273 6.94092 7.49999 7.28865 7.85454 7.54773C8.2091 7.8068 8.78183 8.1 9.57273 8.42727C10.5136 8.82274 11.1818 9.23862 11.5773 9.675C11.9727 10.1114 12.1705 10.6773 12.1705 11.3727C12.1705 11.7136 12.1091 12.0273 11.9864 12.3136C11.8636 12.6 11.6898 12.8455 11.4648 13.05C11.2398 13.2545 10.9636 13.4216 10.6364 13.5511C10.3091 13.6807 9.94091 13.7659 9.53182 13.8068V14.8705H8.40682ZM0 9C0 7.7591 0.235227 6.59319 0.705682 5.50227C1.17614 4.41135 1.82045 3.45682 2.63864 2.63864C3.45682 1.82045 4.41135 1.17614 5.50227 0.705682C6.59319 0.235227 7.7591 0 9 0C10.5273 0 12 0.45 13.4182 1.35C14.8364 2.25 15.9545 3.27956 16.7727 4.43864V1.63636H18V6.54545H13.0909V5.31818H15.8932C15.1977 4.26817 14.2091 3.32386 12.9273 2.48523C11.6455 1.64659 10.3364 1.22727 9 1.22727C7.93636 1.22727 6.93069 1.43182 5.98295 1.84091C5.03521 2.25 4.21024 2.80568 3.50795 3.50795C2.80568 4.21024 2.25 5.03521 1.84091 5.98295C1.43182 6.93069 1.22727 7.93636 1.22727 9H0Z" fill="#0870D9"/>
</svg>
