<svg width="24" height="22" viewBox="0 0 24 22" fill="none" xmlns="http://www.w3.org/2000/svg">
<path d="M9.94333 0C8.10517 0.0396957 6.76238 0.578987 5.9508 1.60199C4.99007 2.8139 4.80943 4.33604 5.41301 6.79C5.20699 7.04395 5.02265 7.44957 5.07104 8.0034C5.21819 9.03835 5.62828 9.46399 5.96249 9.63808C6.12112 10.4602 6.57081 11.395 7.01177 11.8398V13.5389C6.70649 14.1965 5.70549 14.5776 4.55371 15.0166C2.61179 15.756 0.195835 16.6761 0.0292279 19.5835L0 20.087H13.0542C12.4077 19.1199 12.0283 17.973 12.0283 16.7391C12.0283 15.5425 12.3871 14.4294 12.9976 13.481V11.8351C13.4192 11.397 13.8402 10.4834 13.9953 9.65022C14.3505 9.48283 14.7889 9.05759 14.8906 7.97911C14.9375 7.44107 14.7841 7.04539 14.5711 6.79C14.9946 5.4853 15.3666 3.5843 14.4698 2.16338C14.0443 1.48951 13.3957 1.06545 12.5397 0.90141C12.0589 0.317931 11.1525 0 9.9443 0H9.94333ZM9.95405 0.955588C10.8973 0.955588 11.5764 1.18357 11.8178 1.57957L11.9396 1.77947L12.1793 1.81123C12.8437 1.90114 13.3135 2.17783 13.6163 2.65752C14.3391 3.80344 13.9577 5.61197 13.5247 6.77318L13.3669 7.16644L13.7624 7.35606C13.8068 7.38619 13.9268 7.55167 13.8969 7.89411C13.83 8.60145 13.5965 8.79064 13.5462 8.79925H13.0921L13.0493 9.23174C12.959 10.1385 12.4314 11.0754 12.2514 11.2055L12 11.3428V13.6304C11.9915 13.8088 11.2702 14.3478 10.0047 14.3478C8.76314 14.3478 8.00942 13.8495 8.00942 13.6304V11.6221L8.01721 11.3484L7.76488 11.2111C7.58281 11.0853 6.99926 10.1375 6.90947 9.23361L6.90266 8.80486H6.44962C6.37879 8.77808 6.15515 8.55113 6.06187 7.89878C6.02695 7.49799 6.24016 7.33178 6.24016 7.33178L6.53341 7.14402L6.4467 6.81709C5.84263 4.52909 5.94224 3.19124 6.74385 2.1802C7.36239 1.40063 8.44611 0.988588 9.95405 0.955588ZM18.513 11.4783C15.4876 11.4783 13.0259 13.8385 13.0259 16.7391C13.0259 19.6398 15.4876 22 18.513 22C21.5383 22 24 19.6398 24 16.7391C24 13.8385 21.5383 11.4783 18.513 11.4783ZM18.0687 13.3913H18.9553V14.2292C19.3289 14.2895 19.652 14.4579 19.8974 14.7215C20.1877 15.0343 20.3515 15.4745 20.3241 15.8685L20.3085 16.0778H19.4258L19.4219 15.8564C19.416 15.4599 19.256 14.9868 18.5227 14.9868C17.8897 14.9868 17.5952 15.2309 17.5952 15.7546C17.5952 16.1922 17.9928 16.3039 18.6961 16.4626C19.4793 16.6396 20.4542 16.8595 20.4537 18.003C20.4537 18.223 20.3794 19.2979 18.9543 19.5041V20.087H18.0687V19.4929C17.0895 19.3269 16.5987 18.748 16.5693 17.7265L16.5625 17.4948H17.4773L17.4705 17.7255C17.462 18.0426 17.5463 18.2909 17.7209 18.4626C18.0167 18.7533 18.4881 18.7568 18.5081 18.7568C19.4159 18.7568 19.5515 18.2883 19.5515 18.0095C19.5515 17.5446 19.1549 17.434 18.4516 17.279C17.6679 17.1069 16.693 16.893 16.693 15.7088C16.693 15.5735 16.7323 14.4196 18.0687 14.2283V13.3913Z" fill="#0870D9"/>
</svg>
