<svg width="20" height="20" viewBox="0 0 20 20" fill="none" xmlns="http://www.w3.org/2000/svg">
<path d="M0.942139 11.2375H2.17964C2.34215 11.2375 2.50307 11.2696 2.65321 11.3317C2.80335 11.3939 2.93977 11.4851 3.05468 11.6C3.1696 11.7149 3.26075 11.8513 3.32294 12.0015C3.38513 12.1516 3.41714 12.3125 3.41714 12.475C3.41487 12.8018 3.28349 13.1143 3.05166 13.3445C2.81983 13.5748 2.50636 13.704 2.17964 13.704H0.942139V11.2375Z" stroke="#0870D9" stroke-width="1.375" stroke-miterlimit="10"/>
<path d="M0.942139 17.0039V13.7039H1.80151C2.01779 13.7039 2.23194 13.7466 2.43164 13.8296C2.63135 13.9126 2.81268 14.0343 2.96521 14.1876C3.11774 14.341 3.23847 14.5229 3.32045 14.7231C3.40243 14.9232 3.44405 15.1376 3.44292 15.3539V17.0039" stroke="#0870D9" stroke-width="1.375" stroke-miterlimit="10"/>
<path d="M8.34995 16.179H5.88354V11.2375H8.34995" stroke="#0870D9" stroke-width="1.375" stroke-miterlimit="10"/>
<path d="M7.53354 13.7039H5.88354" stroke="#0870D9" stroke-width="1.375" stroke-miterlimit="10"/>
<path d="M10 17.004V11.2376H10.825L12.475 16.179H13.2914V10.4126" stroke="#0870D9" stroke-width="1.375" stroke-miterlimit="10"/>
<path d="M14.9414 11.2375H19.8828" stroke="#0870D9" stroke-width="1.375" stroke-miterlimit="10"/>
<path d="M17.4164 17.004V11.2375" stroke="#0870D9" stroke-width="1.375" stroke-miterlimit="10"/>
<path d="M19.8828 18.6453H0.117188" stroke="#0870D9" stroke-width="1.375" stroke-miterlimit="10"/>
<path d="M19.0578 8.76255L9.99995 1.35474L0.942139 8.76255" stroke="#0870D9" stroke-width="1.375" stroke-miterlimit="10"/>
</svg>
