<svg width="14" height="20" viewBox="0 0 14 20" fill="none" xmlns="http://www.w3.org/2000/svg">
<path fill-rule="evenodd" clip-rule="evenodd" d="M10.3826 0.881221C8.77473 -0.0133256 6.87884 -0.23743 5.1067 0.257576C3.33455 0.752582 1.82923 1.92673 0.917653 3.52503C0.00607421 5.12333 -0.23816 7.01672 0.23799 8.79403C0.714139 10.5713 1.87223 12.089 3.46075 13.0176V14.6956C3.46075 15.0662 3.60796 15.4216 3.86999 15.6836C4.13202 15.9456 4.48741 16.0929 4.85798 16.0929H9.04966C9.42023 16.0929 9.77562 15.9456 10.0377 15.6836C10.2997 15.4216 10.4469 15.0662 10.4469 14.6956V13.0189C11.5039 12.4118 12.383 11.5376 12.996 10.4839C13.609 9.43027 13.9345 8.23407 13.94 7.01505C13.9483 5.76822 13.6229 4.54187 12.9973 3.46327C12.3718 2.38468 11.469 1.49315 10.3826 0.881221ZM6.95382 2.39302C7.43586 2.39302 7.82709 2.78425 7.82709 3.26629V3.80283C8.21383 3.87571 8.57463 4.04897 8.87332 4.30523C9.172 4.56149 9.39809 4.89176 9.52891 5.26293C9.57161 5.37202 9.59192 5.48858 9.58863 5.60568C9.58534 5.72278 9.55853 5.83803 9.50979 5.94455C9.46104 6.05107 9.39137 6.1467 9.3049 6.22574C9.21844 6.30478 9.11695 6.36561 9.00649 6.40462C8.89603 6.44363 8.77885 6.46001 8.66193 6.4528C8.545 6.44559 8.43073 6.41492 8.3259 6.36263C8.22107 6.31034 8.12784 6.23749 8.05174 6.14842C7.97565 6.05935 7.91826 5.95589 7.88298 5.84418C7.84856 5.74683 7.78478 5.66256 7.70045 5.603C7.61611 5.54344 7.51536 5.51152 7.41211 5.51164H6.35022C6.26345 5.51152 6.17969 5.54345 6.11501 5.6013C6.05033 5.65915 6.0093 5.73884 5.99977 5.82509C5.99025 5.91133 6.0129 5.99806 6.0634 6.06863C6.11389 6.1392 6.18866 6.18863 6.27337 6.20746L7.89136 6.56096C8.39668 6.67238 8.84804 6.95481 9.1692 7.36053C9.49037 7.76626 9.66164 8.2704 9.65408 8.7878C9.64653 9.3052 9.46061 9.80413 9.12773 10.2003C8.79486 10.5965 8.33544 10.8656 7.82709 10.9622V11.5016C7.82709 11.7332 7.73508 11.9553 7.57131 12.1191C7.40755 12.2828 7.18543 12.3748 6.95382 12.3748C6.72222 12.3748 6.5001 12.2828 6.33633 12.1191C6.17256 11.9553 6.08055 11.7332 6.08055 11.5016V10.9636C5.69413 10.8905 5.33363 10.7173 5.03502 10.4613C4.73641 10.2054 4.51013 9.87561 4.37873 9.50492C4.30793 9.28827 4.32463 9.05253 4.42528 8.84803C4.52592 8.64354 4.70253 8.48649 4.91739 8.41043C5.13224 8.33438 5.36832 8.34534 5.57521 8.44097C5.7821 8.5366 5.9434 8.70933 6.02466 8.92227C6.09453 9.11788 6.28036 9.25481 6.49693 9.25481H7.41211C7.53463 9.25355 7.65241 9.20737 7.74314 9.12503C7.83386 9.04269 7.89121 8.92991 7.90431 8.80809C7.9174 8.68628 7.88533 8.56389 7.81418 8.46415C7.74303 8.3644 7.63775 8.29424 7.5183 8.26697L5.90031 7.91347C5.41732 7.80771 4.98718 7.5348 4.68574 7.14288C4.3843 6.75096 4.23091 6.2652 4.25263 5.77124C4.27434 5.27728 4.46977 4.80685 4.80444 4.4429C5.13911 4.07894 5.59154 3.84484 6.08195 3.78187V3.26489C6.08195 2.78285 6.47178 2.39302 6.95382 2.39302ZM4.15936 17.4328C3.88144 17.4328 3.61489 17.5432 3.41837 17.7397C3.22185 17.9362 3.11144 18.2028 3.11144 18.4807C3.11144 18.7586 3.22185 19.0252 3.41837 19.2217C3.61489 19.4182 3.88144 19.5286 4.15936 19.5286H9.74828C10.0262 19.5286 10.2927 19.4182 10.4893 19.2217C10.6858 19.0252 10.7962 18.7586 10.7962 18.4807C10.7962 18.2028 10.6858 17.9362 10.4893 17.7397C10.2927 17.5432 10.0262 17.4328 9.74828 17.4328H4.15936Z" fill="#0870D9"/>
</svg>
