<svg width="20" height="20" viewBox="0 0 20 20" fill="none" xmlns="http://www.w3.org/2000/svg">
<path d="M10 0C4.4987 0 0 4.4987 0 10C0 15.5013 4.4987 20 10 20C15.5013 20 20 15.5013 20 10C20 4.4987 15.5013 0 10 0ZM14.668 10.9993C13.0013 13.418 10.5013 15.6673 10.332 15.7487C10.2507 15.7487 10.166 15.8333 10 15.8333C9.83398 15.8333 9.74935 15.7487 9.58333 15.6673C9.4987 15.5827 6.91732 13.3333 5.25065 10.918C5.08464 10.7487 5.08464 10.5013 5.25065 10.2507C5.41667 10.166 5.58268 10 5.83333 10H8.0013C8.0013 10 8.2487 4.91537 8.41797 4.66797C8.66536 4.41732 9.33268 4.16667 10 4.16667C10.5827 4.16667 11.25 4.41732 11.5007 4.66797C11.6667 4.91537 11.9987 10 11.9987 10H14.1667C14.4173 10 14.5833 10.0846 14.668 10.332C14.834 10.5013 14.834 10.7487 14.668 10.9993Z" fill="#F05656"/>
</svg>
