<svg width="24" height="24" viewBox="0 0 24 24" fill="none" xmlns="http://www.w3.org/2000/svg">
<path d="M6.96876 21.5834C6.25001 21.5834 5.63107 21.3478 5.11199 20.8766C4.59289 20.4055 4.33334 19.8185 4.33334 19.1157V5.60318C4.33334 5.01221 4.50904 4.48912 4.86043 4.03391C5.21181 3.5787 5.67501 3.28721 6.25001 3.15943L15.3542 1.26672V16.1209L6.72918 17.9657C6.45763 18.0296 6.23003 18.1693 6.04636 18.385C5.8627 18.6006 5.77084 18.8441 5.77084 19.1157C5.77084 19.4191 5.89064 19.6667 6.13022 19.8584C6.3698 20.0501 6.6493 20.1459 6.96876 20.1459H18.2292V4.33339H19.6667V21.5834H6.96876ZM7.20834 16.4323L8.64584 16.1209V4.11777L7.20834 4.42922V16.4323Z" fill="white"/>
</svg>
