<svg width="300" height="289" viewBox="0 0 300 289" fill="none" xmlns="http://www.w3.org/2000/svg">
<path d="M63.7486 249.503C63.3594 249.503 63.0481 249.348 62.7367 249.114C58.7671 245.534 54.9531 241.72 51.3726 237.672C50.8277 237.049 50.8277 236.038 51.5283 235.493C52.151 234.948 53.1628 234.948 53.7077 235.648C57.2103 239.54 60.9465 243.354 64.8383 246.857C65.461 247.402 65.5388 248.413 64.994 249.036C64.6048 249.348 64.2156 249.503 63.7486 249.503ZM42.7328 225.685C42.2657 225.685 41.7987 225.452 41.4874 225.063C38.4518 220.704 35.5718 216.034 33.0032 211.363C32.614 210.585 32.8475 209.651 33.6259 209.262C34.4043 208.873 35.3383 209.106 35.7275 209.884C38.2182 214.477 41.0204 218.991 43.9781 223.272C44.4452 223.973 44.2895 224.907 43.589 225.452C43.3554 225.607 43.0441 225.685 42.7328 225.685ZM27.5547 197.742C26.932 197.742 26.3871 197.353 26.1536 196.808C24.1299 191.826 22.4175 186.689 21.0164 181.552C20.7829 180.696 21.2499 179.84 22.1061 179.684C22.9623 179.45 23.8185 179.917 23.9742 180.774C25.3752 185.833 27.0098 190.815 28.9557 195.718C29.2671 196.497 28.8779 197.431 28.0995 197.742C27.9438 197.742 27.7103 197.742 27.5547 197.742ZM19.2262 167.074C18.4478 167.074 17.8251 166.53 17.6694 165.751C16.8911 160.458 16.3462 155.088 16.1906 149.717C16.1906 148.861 16.8132 148.16 17.6694 148.082C18.5256 148.082 19.2262 148.705 19.304 149.561C19.4597 154.776 20.0045 160.069 20.7829 165.206C20.9386 166.063 20.3159 166.841 19.4597 166.997C19.3818 167.074 19.304 167.074 19.2262 167.074Z" fill="#0870D9"/>
<path d="M225.882 266.082C225.337 266.082 224.87 265.771 224.558 265.304C224.091 264.603 224.403 263.591 225.103 263.202C229.618 260.556 234.055 257.598 238.258 254.485C238.958 253.94 239.892 254.095 240.437 254.796C240.982 255.497 240.826 256.431 240.126 256.975C235.845 260.167 231.33 263.202 226.738 265.849C226.427 266.004 226.193 266.082 225.882 266.082ZM251.334 247.012C250.945 247.012 250.478 246.857 250.244 246.545C249.622 245.923 249.7 244.911 250.322 244.366C254.136 240.785 257.795 236.894 261.142 232.924C261.686 232.301 262.698 232.223 263.321 232.768C263.944 233.313 264.022 234.325 263.477 234.948C260.052 239.073 256.316 242.965 252.424 246.623C252.113 246.857 251.723 247.012 251.334 247.012ZM271.805 222.65C271.494 222.65 271.182 222.572 270.949 222.416C270.248 221.949 270.015 221.015 270.482 220.237C273.362 215.878 276.008 211.285 278.421 206.615C278.81 205.837 279.744 205.526 280.523 205.915C281.301 206.304 281.613 207.238 281.223 208.016C278.81 212.764 276.086 217.512 273.128 221.949C272.817 222.416 272.272 222.65 271.805 222.65ZM286.127 194.317C285.971 194.317 285.738 194.317 285.582 194.239C284.804 193.928 284.337 193.072 284.648 192.293C286.438 187.39 287.995 182.33 289.241 177.193C289.474 176.337 290.252 175.87 291.109 176.026C291.965 176.259 292.432 177.037 292.276 177.894C291.031 183.109 289.474 188.246 287.606 193.305C287.372 193.928 286.75 194.317 286.127 194.317ZM293.599 163.416C293.522 163.416 293.444 163.416 293.444 163.416C292.587 163.338 291.965 162.56 292.12 161.704C292.198 160.77 292.354 159.913 292.432 158.979C292.899 154.698 293.132 150.262 293.132 145.981C293.132 145.125 293.833 144.424 294.689 144.424C295.545 144.424 296.246 145.125 296.246 145.981C296.246 150.417 295.934 154.854 295.467 159.291C295.39 160.225 295.234 161.159 295.156 162.093C295.078 162.793 294.378 163.416 293.599 163.416Z" fill="#0870D9"/>
<path d="M76.8251 32.8067C76.3581 32.8067 75.891 32.5731 75.5797 32.184C75.1127 31.4834 75.2684 30.5494 75.9689 30.0045C80.3277 26.9689 84.9979 24.089 89.6681 21.5204C90.4464 21.1312 91.3805 21.3647 91.7697 22.1431C92.1588 22.9214 91.9253 23.8555 91.147 24.2446C86.5546 26.7354 82.0401 29.5375 77.7591 32.4953C77.4478 32.7288 77.1364 32.8067 76.8251 32.8067ZM104.846 17.7064C104.223 17.7064 103.679 17.3172 103.445 16.7724C103.134 15.994 103.523 15.06 104.301 14.7486C109.283 12.7249 114.42 11.0125 119.557 9.61141C120.413 9.3779 121.192 9.84492 121.425 10.7011C121.659 11.5573 121.192 12.3357 120.336 12.5692C115.276 13.9702 110.295 15.6048 105.391 17.5507C105.235 17.7064 105.002 17.7064 104.846 17.7064ZM183.072 10.4676C182.994 10.4676 182.838 10.4676 182.76 10.4676C178.635 9.68924 174.432 9.06655 170.307 8.59954C169.295 8.5217 168.205 8.36603 167.193 8.28819C166.337 8.21035 165.714 7.50983 165.792 6.65363C165.87 5.79743 166.648 5.17474 167.427 5.25257C168.516 5.33041 169.528 5.40824 170.618 5.56392C174.899 6.03093 179.18 6.65363 183.383 7.50983C184.239 7.6655 184.784 8.5217 184.628 9.30006C184.395 10.0006 183.772 10.4676 183.072 10.4676ZM135.514 9.3779C134.735 9.3779 134.113 8.83305 133.957 8.05468C133.801 7.19848 134.424 6.42012 135.28 6.26445C140.573 5.48608 145.944 4.94123 151.314 4.78555C152.171 4.78555 152.871 5.40825 152.949 6.26445C152.949 7.12065 152.326 7.82117 151.47 7.89901C146.255 8.05468 140.962 8.5217 135.825 9.30006C135.669 9.3779 135.592 9.3779 135.514 9.3779Z" fill="#0870D9"/>
<path d="M228.065 216.771C267.794 177.042 267.794 112.63 228.065 72.9011C188.337 33.1727 123.924 33.1726 84.1958 72.9011C44.4673 112.63 44.4673 177.042 84.1958 216.771C123.924 256.499 188.337 256.499 228.065 216.771Z" fill="#00B6FF"/>
<path d="M249.622 95.0757V71.1799C249.622 69.4675 251.023 67.9887 252.969 67.833C254.993 67.6773 256.705 69.1562 256.705 71.0243V63.7077C256.705 61.6839 258.34 59.9715 260.597 59.8158C263.01 59.6602 264.956 61.3726 264.956 63.552V59.8937C264.956 57.8699 266.59 56.1575 268.848 56.0019C271.26 55.8462 273.206 57.5586 273.206 59.738V63.4741C273.206 61.4504 274.841 59.738 277.098 59.5823C279.511 59.4267 281.457 61.1391 281.457 63.3185V96.7103C281.457 97.8 282.936 98.1113 283.403 97.1773L289.318 85.424C290.019 83.0889 292.51 81.8435 294.845 82.5441C297.18 83.2446 298.425 85.7354 297.725 88.0704L285.66 117.57C284.648 120.061 283.325 122.241 281.379 123.797C279.978 124.965 279.2 126.677 279.2 128.545V143.334L249.622 95.0757Z" fill="white"/>
<path d="M279.355 144.891C278.499 144.891 277.799 144.191 277.799 143.334V128.545C277.799 126.21 278.811 124.031 280.523 122.63C282.08 121.384 283.325 119.516 284.337 117.026L296.402 87.5257C296.635 86.8251 296.557 86.1246 296.246 85.4241C295.857 84.7235 295.312 84.2565 294.533 84.023C293.833 83.7895 293.055 83.8673 292.354 84.1787C291.654 84.49 291.186 85.1127 290.953 85.8132C290.953 85.8911 290.875 85.9689 290.875 86.0467L284.96 97.8C284.415 98.8898 283.247 99.4346 282.08 99.1233C280.912 98.8119 280.134 97.8 280.134 96.6325V63.2407C280.134 62.6958 279.9 62.151 279.433 61.7618C278.888 61.2169 278.11 60.9834 277.332 61.0613C276.008 61.1391 274.919 62.151 274.919 63.3964C274.919 64.2526 274.218 64.9531 273.362 64.9531C272.506 64.9531 271.805 64.2526 271.805 63.3964V59.6602C271.805 59.1154 271.572 58.6483 271.183 58.1813C270.638 57.6365 269.859 57.403 269.081 57.4808C267.758 57.5586 266.668 58.5705 266.668 59.8159V63.4742C266.668 64.3304 265.968 65.0309 265.111 65.0309C264.255 65.0309 263.555 64.3304 263.555 63.4742C263.555 62.9293 263.321 62.4623 262.932 61.9953C262.387 61.4505 261.609 61.2169 260.83 61.2948C259.507 61.3726 258.417 62.3845 258.417 63.6299V70.9465C258.417 71.8027 257.717 72.5032 256.861 72.5032C256.004 72.5032 255.304 71.8027 255.304 70.9465C255.304 70.5573 255.148 70.1681 254.837 69.8568C254.448 69.4676 253.825 69.2341 253.202 69.3119C252.19 69.3898 251.334 70.1681 251.334 71.1022V94.9979C251.334 95.8541 250.634 96.5547 249.778 96.5547C248.921 96.5547 248.221 95.8541 248.221 94.9979V71.1022C248.221 68.5336 250.322 66.3541 253.047 66.1985C253.825 66.1206 254.603 66.2763 255.382 66.5877V63.7077C255.382 60.8278 257.717 58.4927 260.752 58.337C261.842 58.2592 262.854 58.4927 263.788 58.9597C264.255 56.5468 266.357 54.6787 269.003 54.523C270.638 54.4452 272.272 54.99 273.44 56.0797C274.218 56.7803 274.763 57.7143 274.919 58.7262C275.619 58.337 276.398 58.1035 277.254 58.1035C278.888 58.0257 280.523 58.5705 281.613 59.6602C282.702 60.6721 283.247 61.9953 283.247 63.3964V94.6088L288.151 84.8792C288.618 83.4003 289.63 82.2328 291.031 81.5322C292.432 80.8317 294.066 80.676 295.545 81.1431C297.102 81.6101 298.347 82.6998 299.048 84.1008C299.748 85.5019 299.904 87.0586 299.437 88.6154C299.437 88.6154 299.437 88.6932 299.359 88.6932L287.295 118.193C286.127 121.229 284.493 123.408 282.547 125.043C281.535 125.821 280.99 127.144 280.99 128.545V143.334C280.912 144.191 280.212 144.891 279.355 144.891Z" fill="#0870D9"/>
<path d="M265.033 75.461C264.177 75.461 263.477 74.7604 263.477 73.9042V63.552C263.477 62.6958 264.177 61.9953 265.033 61.9953C265.89 61.9953 266.59 62.6958 266.59 63.552V73.9042C266.59 74.7604 265.89 75.461 265.033 75.461Z" fill="#0870D9"/>
<path d="M273.362 87.7591C272.506 87.7591 271.805 87.0586 271.805 86.2024V63.3964C271.805 62.5402 272.506 61.8396 273.362 61.8396C274.218 61.8396 274.919 62.5402 274.919 63.3964V86.2803C274.841 87.1365 274.218 87.7591 273.362 87.7591Z" fill="#0870D9"/>
<path d="M256.783 76.395C255.927 76.395 255.226 75.6944 255.226 74.8382V71.0243C255.226 70.1681 255.927 69.4675 256.783 69.4675C257.639 69.4675 258.34 70.1681 258.34 71.0243V74.8382C258.34 75.6944 257.639 76.395 256.783 76.395Z" fill="#0870D9"/>
<path d="M260.986 157.968L249.466 138.041C248.61 136.563 247.287 135.395 245.574 134.85C238.569 132.749 233.276 122.396 229.229 115.391L215.685 91.8844C214.829 90.4055 215.296 88.3818 216.931 87.2921C218.643 86.1245 220.9 86.5916 221.834 88.1483L218.176 81.7657C217.164 80.0533 217.787 77.7182 219.577 76.4728C221.601 75.1496 224.169 75.6166 225.259 77.4847L223.391 74.2934C222.379 72.581 223.002 70.2459 224.792 69.0005C226.816 67.6773 229.384 68.1443 230.474 70.0124L232.342 73.2037C231.33 71.4913 231.953 69.1562 233.743 67.9108C235.767 66.5876 238.336 67.0546 239.425 68.9227L256.16 97.8778C256.705 98.8119 258.106 98.4227 258.106 97.333L257.328 84.1786C256.783 81.8435 258.34 79.4306 260.675 78.9636C263.088 78.4187 265.423 79.8976 265.89 82.3106L270.171 113.912C270.56 116.481 270.482 118.971 269.626 121.307C268.925 123.097 269.159 125.198 270.171 126.833L282.158 147.615L260.986 157.968Z" fill="white"/>
<path d="M260.986 159.524C260.441 159.524 259.896 159.213 259.663 158.746L248.143 138.82C247.442 137.574 246.353 136.718 245.185 136.329C238.18 134.227 233.121 125.354 229.073 118.193C228.684 117.493 228.295 116.792 227.905 116.169L214.362 92.6629C213.039 90.4056 213.817 87.5257 216.074 86.0468C216.775 85.5797 217.475 85.3462 218.254 85.1906L216.775 82.622C215.374 80.1312 216.152 76.8621 218.721 75.2275C219.577 74.6827 220.589 74.2935 221.679 74.2156C220.9 71.8805 221.756 69.1563 224.014 67.7552C225.415 66.8212 227.049 66.5877 228.606 66.899C229.618 67.1325 230.552 67.6774 231.252 68.4557C231.719 67.7552 232.264 67.2104 232.965 66.7433C234.366 65.8093 236 65.5758 237.557 65.8871C238.958 66.1985 240.126 67.0547 240.826 68.3001L256.471 95.3093L255.849 84.4122C255.537 82.9333 255.849 81.3766 256.705 80.0534C257.561 78.7301 258.884 77.7961 260.441 77.4848C261.998 77.1734 263.555 77.4069 264.878 78.2631C266.201 79.1193 267.135 80.4425 267.446 81.9993C267.446 81.9993 267.446 82.0771 267.446 82.1549L271.727 113.757C272.194 116.87 271.961 119.516 271.105 121.851C270.638 123.253 270.793 124.809 271.494 126.132L283.481 146.915C283.87 147.615 283.636 148.627 282.936 149.016C282.157 149.406 281.223 149.172 280.834 148.472L268.847 127.689C267.602 125.588 267.369 123.097 268.225 120.84C268.925 118.972 269.081 116.792 268.692 114.224L264.411 82.6998C264.255 81.9993 263.788 81.3766 263.165 80.9874C262.543 80.5982 261.764 80.4425 260.986 80.5982C259.429 80.9096 258.495 82.4663 258.807 84.023C258.807 84.1009 258.807 84.1787 258.807 84.2565L259.585 97.4109C259.663 98.5784 258.884 99.6681 257.717 100.057C256.549 100.369 255.382 99.9016 254.759 98.8898L238.102 69.9346C237.869 69.4676 237.402 69.1563 236.779 69.0006C236.078 68.8449 235.3 69.0006 234.599 69.3898C233.51 70.0903 233.043 71.5692 233.665 72.5811C234.055 73.3594 233.821 74.2935 233.121 74.6827C232.342 75.0718 231.408 74.8383 231.019 74.1378L229.151 70.9465C228.917 70.4795 228.45 70.1681 227.828 70.0125C227.127 69.8568 226.271 70.0125 225.648 70.4017C224.559 71.1022 224.092 72.5811 224.714 73.5929L226.582 76.7842C226.971 77.5626 226.738 78.4966 226.037 78.8858C225.259 79.275 224.325 79.0415 223.936 78.341C223.702 77.874 223.235 77.5626 222.613 77.4069C221.912 77.2513 221.134 77.4069 220.433 77.7961C219.343 78.4966 218.876 79.9755 219.499 80.9874L223.157 87.37C223.547 88.0705 223.313 89.0824 222.613 89.4716C221.912 89.8608 220.9 89.6272 220.511 88.9267C220.278 88.6154 219.966 88.304 219.499 88.2262C218.954 88.0705 218.332 88.2262 217.787 88.5375C216.931 89.0824 216.619 90.2499 217.086 91.0283L230.63 114.535C231.019 115.158 231.408 115.858 231.797 116.559C235.611 123.253 240.281 131.503 246.119 133.216C248.065 133.838 249.778 135.162 250.867 137.107L262.387 157.034C262.776 157.734 262.543 158.746 261.842 159.135C261.531 159.446 261.297 159.524 260.986 159.524Z" fill="#0870D9"/>
<path d="M246.431 99.2789C245.886 99.2789 245.341 98.9676 245.107 98.5005L231.097 74.1378C230.708 73.4372 230.941 72.4254 231.642 72.0362C232.42 71.647 233.354 71.8805 233.743 72.581L247.754 96.9438C248.143 97.6443 247.909 98.6562 247.209 99.0454C246.975 99.2789 246.664 99.2789 246.431 99.2789Z" fill="#0870D9"/>
<path d="M239.192 103.326C238.647 103.326 238.102 103.015 237.868 102.548L223.936 78.4188C223.547 77.7182 223.78 76.7064 224.481 76.3172C225.259 75.928 226.193 76.1615 226.582 76.862L240.515 100.991C240.904 101.692 240.671 102.704 239.97 103.093C239.737 103.249 239.425 103.326 239.192 103.326Z" fill="#0870D9"/>
<path d="M233.977 110.799C233.432 110.799 232.887 110.487 232.653 110.02L220.589 89.0823C220.2 88.3818 220.433 87.3699 221.134 86.9807C221.912 86.5915 222.846 86.8251 223.235 87.5256L235.3 108.464C235.689 109.164 235.456 110.176 234.755 110.565C234.444 110.721 234.21 110.799 233.977 110.799Z" fill="#0870D9"/>
<path d="M241.838 47.4398C241.293 47.4398 240.749 47.1285 240.515 46.6615L235.144 37.3211C234.755 36.6206 234.989 35.6087 235.689 35.2195C236.467 34.8304 237.402 35.0639 237.791 35.7644L243.161 45.1048C243.551 45.8053 243.317 46.8172 242.617 47.2063C242.383 47.362 242.072 47.4398 241.838 47.4398Z" fill="#0870D9"/>
<path d="M257.561 47.4399C257.328 47.4399 257.016 47.362 256.783 47.2063C256.082 46.8172 255.771 45.8053 256.238 45.1048L261.609 35.7644C261.998 35.0639 263.01 34.7525 263.71 35.2195C264.411 35.6087 264.722 36.6206 264.255 37.3211L258.884 46.6615C258.651 47.2063 258.106 47.4399 257.561 47.4399Z" fill="#0870D9"/>
<path d="M249.7 45.4162C248.843 45.4162 248.143 44.7156 248.143 43.8594V33.0402C248.143 32.184 248.843 31.4834 249.7 31.4834C250.556 31.4834 251.256 32.184 251.256 33.0402V43.8594C251.256 44.7156 250.556 45.4162 249.7 45.4162Z" fill="#0870D9"/>
<path d="M203.557 33.6758C204.802 28.4045 201.538 23.1222 196.266 21.8775C190.995 20.6328 185.713 23.897 184.468 29.1683C183.223 34.4396 186.487 39.7219 191.759 40.9666C197.03 42.2113 202.312 38.9471 203.557 33.6758Z" fill="white"/>
<path d="M194.047 42.7699C187.82 42.7699 182.682 37.7105 182.682 31.4058C182.682 25.1788 187.742 20.0416 194.047 20.0416C200.274 20.0416 205.411 25.101 205.411 31.4058C205.411 37.7105 200.274 42.7699 194.047 42.7699ZM194.047 23.1551C189.454 23.1551 185.796 26.8912 185.796 31.4058C185.796 35.9981 189.532 39.6564 194.047 39.6564C198.561 39.6564 202.297 35.9203 202.297 31.4058C202.297 26.8912 198.561 23.1551 194.047 23.1551Z" fill="#0870D9"/>
<path d="M214.751 125.276C213.35 122.241 210.782 119.906 207.668 118.738L204.788 61.9953C204.632 58.4927 205.722 55.1457 207.902 52.4214L228.84 26.8133C230.007 25.2565 229.696 23.0771 228.217 21.9096C227.594 21.4426 226.816 21.2091 226.115 21.2091C225.103 21.2091 224.014 21.6761 223.313 22.6101L204.555 43.6259C202.92 45.4162 200.663 46.5059 198.25 46.5059H189.454C187.119 46.5059 184.862 45.494 183.227 43.7816L163.768 22.9993C162.601 21.4426 160.421 21.2091 158.865 22.3766C157.931 23.0771 157.464 24.089 157.464 25.1787C157.464 25.9571 157.697 26.6576 158.242 27.2803L179.647 52.1879C182.06 54.99 183.227 58.6483 182.994 62.3067L179.102 118.738C175.911 119.906 173.42 122.241 172.019 125.276H187.119L191.478 85.9689H196.382L200.741 125.276H214.751Z" fill="#0870D9"/>
<path d="M172.097 126.833C171.552 126.833 171.085 126.599 170.774 126.132C170.462 125.665 170.462 125.121 170.696 124.654C172.097 121.54 174.665 119.049 177.701 117.648L181.593 62.2288C181.826 58.9597 180.737 55.7684 178.635 53.2776L157.23 28.37C157.23 28.37 157.23 28.37 157.152 28.2922C156.452 27.436 156.062 26.3463 156.062 25.1787C156.062 23.622 156.763 22.1431 158.086 21.1312C160.266 19.4967 163.379 19.8858 165.092 21.9874L184.473 42.7697C185.796 44.1708 187.586 44.9492 189.532 44.9492H198.328C200.274 44.9492 202.219 44.093 203.543 42.6141L222.223 21.5204C223.157 20.275 224.636 19.5745 226.193 19.5745C227.283 19.5745 228.372 19.9637 229.229 20.5864C230.318 21.4426 231.019 22.6101 231.175 23.9333C231.33 25.2566 231.019 26.5798 230.163 27.6695L209.225 53.3555C207.279 55.7684 206.267 58.804 206.423 61.8396L209.225 117.648C212.26 119.049 214.829 121.54 216.23 124.654C216.464 125.121 216.386 125.665 216.152 126.132C215.841 126.599 215.374 126.833 214.829 126.833H200.974C200.196 126.833 199.495 126.21 199.417 125.432L195.214 87.5257H193.113L188.909 125.432C188.832 126.21 188.131 126.833 187.353 126.833H172.097ZM159.487 26.2684L180.892 51.1761C183.617 54.2895 184.94 58.2592 184.628 62.3845L180.737 118.816C180.659 119.439 180.27 119.983 179.725 120.139C177.779 120.84 176.066 122.085 174.821 123.72H185.796L189.999 85.8132C190.077 85.0349 190.778 84.4122 191.556 84.4122H196.46C197.238 84.4122 197.938 85.0349 198.016 85.8132L202.219 123.72H211.949C210.704 122.085 208.991 120.84 207.045 120.139C206.5 119.906 206.033 119.361 206.033 118.738L203.154 61.9953C202.998 58.1035 204.165 54.3673 206.656 51.4096L227.594 25.8014C227.905 25.4122 228.061 24.9452 227.983 24.4003C227.905 23.8555 227.672 23.3885 227.205 23.0771C226.894 22.8436 226.427 22.688 226.037 22.688C225.415 22.688 224.87 22.9993 224.481 23.4663L224.403 23.5442L205.644 44.7156C203.776 46.8951 200.974 48.0626 198.172 48.0626H189.376C186.574 48.0626 183.928 46.8951 182.06 44.8713L162.601 24.089L162.523 24.0112C161.9 23.155 160.655 22.9993 159.799 23.622C159.332 24.0112 159.02 24.556 159.02 25.1787C159.098 25.5679 159.254 25.9571 159.487 26.2684Z" fill="#0870D9"/>
<path d="M239.97 141.7H221.523V125.276H165.636V141.7H147.189V158.045H165.636H221.523H239.97V141.7Z" fill="white"/>
<path d="M221.523 159.602H165.636C165.636 159.602 165.636 159.602 165.559 159.602H147.189C146.333 159.602 145.632 158.902 145.632 158.045V141.622C145.632 140.766 146.333 140.065 147.189 140.065H164.08V125.198C164.08 124.342 164.78 123.642 165.636 123.642H221.601C222.457 123.642 223.157 124.342 223.157 125.198V140.065H240.048C240.904 140.065 241.605 140.766 241.605 141.622V158.045C241.605 158.902 240.904 159.602 240.048 159.602H221.523C221.601 159.602 221.601 159.602 221.523 159.602ZM165.636 156.489H221.445C221.445 156.489 221.445 156.489 221.523 156.489H238.413V143.179H221.523C220.667 143.179 219.966 142.478 219.966 141.622V126.755H167.193V141.622C167.193 142.478 166.493 143.179 165.636 143.179H148.746V156.489H165.636Z" fill="#0870D9"/>
<path d="M29.0336 66.432V70.7909C29.0336 73.2038 27.0877 75.1497 24.6748 75.1497C22.2618 75.1497 20.3159 73.2038 20.3159 70.7909V61.9954C20.3159 60.0494 21.6391 58.2592 23.5072 57.7922L80.4056 41.6801C81.1061 41.4466 81.8845 41.4466 82.6629 41.6801L139.639 57.9479C141.507 58.4927 142.83 60.2051 142.83 62.151V70.713C142.83 73.126 140.884 75.0719 138.472 75.0719C136.059 75.0719 134.113 73.126 134.113 70.713V66.3542H29.0336V66.432Z" fill="white"/>
<path d="M138.471 76.7064C135.202 76.7064 132.556 74.06 132.556 70.7909V66.432C132.556 65.5758 133.256 64.8753 134.113 64.8753C134.969 64.8753 135.669 65.5758 135.669 66.432V70.7909C135.669 72.3476 136.915 73.593 138.471 73.593C140.028 73.593 141.274 72.3476 141.274 70.7909V62.2289C141.274 60.9835 140.417 59.8159 139.172 59.5046L82.1957 43.2368C81.7287 43.0811 81.2617 43.0811 80.7947 43.2368L23.9741 59.2711C22.7287 59.5824 21.8725 60.75 21.8725 61.9954V70.7909C21.8725 72.3476 23.1179 73.593 24.6746 73.593C25.453 73.593 26.1535 73.2816 26.6984 72.7368C27.2432 72.1919 27.5546 71.4914 27.5546 70.713V66.3542C27.5546 65.498 28.2551 64.7975 29.1113 64.7975C29.9675 64.7975 30.668 65.498 30.668 66.3542V70.713C30.668 72.2698 30.0454 73.7486 28.9556 74.9162C27.8659 76.0059 26.387 76.6286 24.7525 76.6286C21.4834 76.6286 18.8369 73.9822 18.8369 70.713V61.9175C18.8369 59.2711 20.6272 56.936 23.1958 56.2355L80.0163 40.2012C81.0282 39.8898 82.1179 39.8898 83.1298 40.2012L140.106 56.469C142.675 57.1695 144.465 59.5046 144.465 62.151V70.713C144.387 74.06 141.741 76.7064 138.471 76.7064Z" fill="#0870D9"/>
<path d="M134.113 123.408H29.0334V65.1089L81.573 50.3978L134.113 65.1089V123.408Z" fill="white"/>
<path d="M134.113 124.965H29.0335C28.1773 124.965 27.4768 124.264 27.4768 123.408V65.1089C27.4768 64.4083 27.9438 63.7856 28.6444 63.63L81.1839 48.9189C81.4952 48.8411 81.7288 48.8411 82.0401 48.9189L134.58 63.63C135.28 63.7856 135.669 64.4083 135.669 65.1089V123.408C135.592 124.264 134.969 124.965 134.113 124.965ZM30.5903 121.852H132.556V66.2764L81.5731 52.0324L30.5903 66.3542V121.852Z" fill="#0870D9"/>
<path d="M137.771 135.084C139.795 135.084 141.429 133.761 141.429 132.126V126.288C141.429 124.654 139.795 123.33 137.771 123.33H25.3752C23.3515 123.33 21.7169 124.654 21.7169 126.288V132.126C21.7169 133.761 23.3515 135.084 25.3752 135.084H137.771Z" fill="#0870D9"/>
<path d="M137.771 136.64H25.3751C22.4952 136.64 20.2379 134.617 20.2379 132.204V126.366C20.2379 123.875 22.573 121.929 25.3751 121.929H137.771C140.651 121.929 142.908 123.953 142.908 126.366V132.204C142.908 134.695 140.573 136.64 137.771 136.64ZM25.3751 124.965C24.1297 124.965 23.2735 125.666 23.2735 126.366V132.204C23.2735 132.827 24.1297 133.605 25.3751 133.605H137.771C139.016 133.605 139.872 132.904 139.872 132.204V126.366C139.872 125.743 139.016 124.965 137.771 124.965H25.3751Z" fill="#0870D9"/>
<path d="M88.8897 76.6286H74.2565V69.3119C74.2565 65.2645 77.5256 61.9953 81.5731 61.9953C85.6206 61.9953 88.8897 65.2645 88.8897 69.3119V76.6286Z" fill="white"/>
<path d="M88.8897 78.1854H74.2564C73.4002 78.1854 72.6997 77.4848 72.6997 76.6286V69.312C72.6997 64.4083 76.6694 60.4387 81.5731 60.4387C86.4767 60.4387 90.4464 64.4083 90.4464 69.312V76.6286C90.3686 77.4848 89.7459 78.1854 88.8897 78.1854ZM75.8132 75.0719H87.3329V69.312C87.3329 66.1207 84.7643 63.5521 81.5731 63.5521C78.3818 63.5521 75.8132 66.1207 75.8132 69.312V75.0719Z" fill="#0870D9"/>
<path d="M91.7696 88.304H71.3765V123.408H91.7696V88.304Z" fill="#0870D9"/>
<path d="M91.7697 124.965H71.3766C70.5204 124.965 69.8198 124.264 69.8198 123.408V88.304C69.8198 87.4478 70.5204 86.7473 71.3766 86.7473H91.7697C92.6259 86.7473 93.3264 87.4478 93.3264 88.304V123.408C93.3264 124.264 92.6259 124.965 91.7697 124.965ZM72.9333 121.852H90.2908V89.8608H72.9333V121.852Z" fill="#0870D9"/>
<path d="M120.958 88.304H103.445V107.296H120.958V88.304Z" fill="#0870D9"/>
<path d="M120.958 108.853H103.445C102.589 108.853 101.888 108.152 101.888 107.296V88.304C101.888 87.4478 102.589 86.7473 103.445 86.7473H120.958C121.814 86.7473 122.515 87.4478 122.515 88.304V107.296C122.515 108.152 121.814 108.853 120.958 108.853ZM105.002 105.817H119.401V89.9386H105.002V105.817Z" fill="#0870D9"/>
<path d="M112.163 108.853C111.307 108.853 110.606 108.152 110.606 107.296V88.304C110.606 87.4478 111.307 86.7473 112.163 86.7473C113.019 86.7473 113.72 87.4478 113.72 88.304V107.296C113.72 108.152 113.019 108.853 112.163 108.853Z" fill="#0870D9"/>
<path d="M59.701 88.304H42.1879V107.296H59.701V88.304Z" fill="#0870D9"/>
<path d="M59.701 108.853H42.1878C41.3316 108.853 40.6311 108.152 40.6311 107.296V88.304C40.6311 87.4478 41.3316 86.7473 42.1878 86.7473H59.701C60.5572 86.7473 61.2577 87.4478 61.2577 88.304V107.296C61.2577 108.152 60.5572 108.853 59.701 108.853ZM43.7446 105.817H58.1443V89.9386H43.7446V105.817Z" fill="#0870D9"/>
<path d="M50.9055 108.853C50.0493 108.853 49.3488 108.152 49.3488 107.296V88.304C49.3488 87.4478 50.0493 86.7473 50.9055 86.7473C51.7617 86.7473 52.4622 87.4478 52.4622 88.304V107.296C52.4622 108.152 51.7617 108.853 50.9055 108.853Z" fill="#0870D9"/>
<path d="M35.7274 107.374V99.279C35.7274 94.0639 31.4464 89.7829 26.2314 89.7829H18.9148C13.6997 89.7829 9.41871 94.0639 9.41871 99.279V107.374C5.29339 108.386 2.17993 112.355 2.17993 116.87C2.17993 122.085 6.46093 126.366 11.676 126.366H33.548C38.763 126.366 43.044 122.085 43.044 116.87C43.044 112.355 39.9306 108.386 35.7274 107.374Z" fill="#0870D9"/>
<path d="M33.5481 127.923H11.6761C5.60482 127.923 0.623291 122.941 0.623291 116.87C0.623291 112.122 3.65891 107.841 7.93991 106.284V99.3568C7.93991 93.2856 12.9214 88.304 18.9927 88.304H26.3093C32.3805 88.304 37.3621 93.2856 37.3621 99.3568V106.284C41.6431 107.841 44.6787 112.122 44.6787 116.87C44.523 122.941 39.6193 127.923 33.5481 127.923ZM18.9148 91.3397C14.556 91.3397 10.9755 94.9201 10.9755 99.279V107.374C10.9755 108.074 10.5085 108.697 9.80798 108.853C6.30535 109.709 3.73675 113.134 3.73675 116.792C3.73675 121.151 7.31722 124.731 11.6761 124.731H33.5481C37.9069 124.731 41.4874 121.151 41.4874 116.792C41.4874 112.978 38.9188 109.631 35.4161 108.853C34.7156 108.697 34.2486 108.074 34.2486 107.374V99.279C34.2486 94.9201 30.6681 91.3397 26.3093 91.3397H18.9148Z" fill="#0870D9"/>
<path d="M31.3686 136.64H13.8554C12.9992 136.64 12.2987 135.94 12.2987 135.084C12.2987 134.227 12.9992 133.527 13.8554 133.527H31.3686C32.2248 133.527 32.9253 134.227 32.9253 135.084C32.9253 135.94 32.2248 136.64 31.3686 136.64Z" fill="#0870D9"/>
<path d="M22.5731 136.64C21.7169 136.64 21.0164 135.94 21.0164 135.084V101.458C21.0164 100.602 21.7169 99.9016 22.5731 99.9016C23.4293 99.9016 24.1298 100.602 24.1298 101.458V135.084C24.1298 135.94 23.4293 136.64 22.5731 136.64Z" fill="#0870D9"/>
<path d="M22.5732 117.648C22.184 117.648 21.7948 117.493 21.4835 117.181L14.1668 109.865C13.5442 109.242 13.5442 108.308 14.1668 107.685C14.7895 107.063 15.7236 107.063 16.3463 107.685L22.5732 113.912L28.8001 107.685C29.4228 107.063 30.3568 107.063 30.9795 107.685C31.6022 108.308 31.6022 109.242 30.9795 109.865L23.6629 117.181C23.4294 117.493 22.9624 117.648 22.5732 117.648Z" fill="#0870D9"/>
<path d="M97.5295 180.54C103.247 180.54 107.882 175.905 107.882 170.188C107.882 164.471 103.247 159.836 97.5295 159.836C91.8121 159.836 87.1772 164.471 87.1772 170.188C87.1772 175.905 91.8121 180.54 97.5295 180.54Z" fill="white"/>
<path d="M97.5295 182.097C90.9912 182.097 85.6205 176.726 85.6205 170.188C85.6205 163.65 90.9134 158.279 97.5295 158.279C104.068 158.279 109.438 163.65 109.438 170.188C109.361 176.726 104.068 182.097 97.5295 182.097ZM97.5295 161.392C92.7036 161.392 88.7339 165.362 88.7339 170.188C88.7339 175.092 92.7036 178.983 97.5295 178.983C102.355 178.983 106.325 175.014 106.325 170.188C106.325 165.362 102.355 161.392 97.5295 161.392Z" fill="#0870D9"/>
<path d="M118 195.407C116.911 189.258 111.462 185.055 104.69 185.055C104.613 185.055 104.613 185.055 104.535 185.055L89.7459 184.977H89.668C82.8184 185.055 77.5256 189.258 76.4359 195.563L71.4543 227.475C70.9873 230.2 72.8554 232.768 75.6575 233.235C78.3818 233.702 80.9504 231.834 81.4174 229.032L85.5427 202.957C85.5427 202.957 86.0876 224.985 86.0876 225.14L83.8303 275.267C83.6746 278.225 85.9319 280.716 88.8897 280.793C88.9675 280.793 89.0454 280.793 89.1232 280.793C91.9253 280.793 94.2604 278.536 94.4161 275.734L96.2841 235.259C96.829 235.337 97.3738 235.415 97.9187 235.415C97.9965 235.415 98.1522 235.415 98.23 235.415C98.6971 235.415 99.0862 235.337 99.4754 235.337L101.11 276.279C101.188 279.159 103.601 281.338 106.403 281.338C106.481 281.338 106.559 281.338 106.636 281.338C109.594 281.183 111.851 278.77 111.696 275.812L109.672 225.763C109.672 225.452 109.127 202.646 109.127 202.646L114.887 231.134C115.354 233.547 117.456 235.181 119.791 235.181C120.102 235.181 120.413 235.181 120.725 235.103C123.449 234.559 125.239 231.912 124.694 229.188L118 195.407Z" fill="#0870D9"/>
<path d="M106.325 282.817C102.667 282.817 99.6311 279.937 99.4754 276.201L97.8409 236.816C97.763 236.816 97.6852 236.816 97.6074 236.816L95.8171 275.656C95.6615 279.47 92.4702 282.428 88.6562 282.194C86.8659 282.117 85.1535 281.338 83.9082 279.937C82.6628 278.614 82.0401 276.824 82.1179 275.033L84.3752 224.985C84.3752 224.673 84.2973 222.727 84.2195 219.925L82.7406 229.11C82.1958 232.69 78.8488 235.103 75.2683 234.559C71.6879 234.014 69.2749 230.667 69.8198 227.086L74.8013 195.173C75.9689 188.168 81.8844 183.42 89.5124 183.264H89.5902L104.457 183.342H104.613C112.163 183.342 118.234 188.09 119.479 194.94L126.095 228.721C126.796 232.301 124.461 235.726 120.88 236.427C120.491 236.504 120.024 236.582 119.635 236.582C116.522 236.582 113.797 234.325 113.175 231.289L110.917 219.925C110.995 223.117 111.073 225.374 111.073 225.53L113.097 275.578C113.175 277.446 112.552 279.159 111.307 280.482C110.061 281.805 108.349 282.584 106.559 282.661C106.481 282.817 106.403 282.817 106.325 282.817ZM99.3198 233.702C99.7089 233.702 100.02 233.858 100.332 234.092C100.643 234.403 100.876 234.792 100.876 235.181L102.511 276.123C102.589 278.225 104.301 279.859 106.403 279.704C107.415 279.626 108.349 279.237 109.049 278.458C109.75 277.68 110.061 276.746 110.061 275.734L108.037 225.685C108.037 225.374 107.57 204.903 107.493 202.568C107.493 201.789 108.037 201.089 108.894 201.011C109.672 200.933 110.45 201.478 110.606 202.256L116.366 230.745C116.755 232.613 118.545 233.858 120.413 233.469C122.281 233.08 123.527 231.289 123.138 229.421L116.522 195.64C115.588 190.27 110.684 186.534 104.69 186.534H104.535L89.6681 186.456H89.5902C83.519 186.534 78.771 190.27 77.9148 195.718L72.9332 227.553C72.6219 229.421 73.9451 231.212 75.8132 231.523C77.6813 231.834 79.4715 230.511 79.7828 228.643L83.9082 202.568C84.0638 201.789 84.7644 201.245 85.5427 201.245C86.3211 201.322 86.9438 201.945 87.0216 202.723C87.5665 224.829 87.5665 224.907 87.5665 224.985L85.3092 275.111C85.2314 276.123 85.6206 277.057 86.3211 277.836C87.0216 278.614 87.9557 279.003 88.9675 279.081C89.0454 279.081 89.1232 279.081 89.1232 279.081C91.1469 279.081 92.7815 277.524 92.8593 275.501L94.7274 235.026C94.7274 234.559 94.9609 234.169 95.2723 233.936C95.5836 233.625 96.0506 233.547 96.4398 233.625C97.0625 233.702 97.6074 233.78 98.0744 233.702C98.4636 233.702 98.7749 233.702 99.1641 233.625C99.1641 233.702 99.2419 233.702 99.3198 233.702Z" fill="#0870D9"/>
<path d="M208.68 236.582C206.423 237.516 203.854 236.505 202.842 234.247L196.382 214.088L201.519 251.449C201.752 253.629 200.818 255.574 198.561 255.574H173.576C171.396 255.574 170.384 253.629 170.618 251.449L175.132 213.932L169.217 234.481C168.516 236.193 166.882 237.283 165.091 237.283C164.547 237.283 164.002 237.205 163.457 236.972C161.2 236.038 160.032 233.469 160.966 231.212L170.384 202.179C170.851 200.778 171.396 199.454 172.175 198.131C174.432 194.317 177.623 191.826 182.527 191.826H188.52C193.424 191.826 196.615 194.006 199.028 198.131C199.729 199.299 200.274 200.622 200.741 201.945L211.015 230.745C212.027 233.002 210.937 235.57 208.68 236.582Z" fill="#0870D9"/>
<path d="M198.639 257.053H173.654C172.33 257.053 171.241 256.586 170.384 255.652C169.45 254.563 168.983 252.928 169.217 251.216L171.396 232.924L170.851 234.948C170.851 235.026 170.851 235.026 170.774 235.103C169.84 237.361 167.66 238.917 165.247 238.917C164.469 238.917 163.768 238.762 163.068 238.528C161.589 237.906 160.421 236.816 159.799 235.337C159.176 233.858 159.176 232.301 159.721 230.822L169.139 201.867C169.684 200.233 170.307 198.754 171.007 197.508C173.809 192.838 177.623 190.503 182.605 190.425H188.676C193.969 190.425 197.705 192.683 200.507 197.508C201.208 198.676 201.752 199.999 202.297 201.556L212.572 230.355C213.817 233.391 212.416 236.894 209.38 238.139C206.345 239.462 202.842 237.983 201.519 235.026C201.519 234.948 201.519 234.948 201.441 234.87L200.429 231.756L203.154 251.293C203.387 253.084 202.92 254.64 201.986 255.73C201.13 256.586 199.962 257.053 198.639 257.053ZM175.21 212.375C175.288 212.375 175.444 212.375 175.522 212.375C176.3 212.531 176.845 213.309 176.767 214.088L172.252 251.605C172.175 252.461 172.33 253.239 172.642 253.628C172.797 253.784 173.031 254.018 173.576 254.018H198.561C199.106 254.018 199.417 253.784 199.573 253.628C199.962 253.239 200.118 252.461 199.962 251.605L194.825 214.321C194.747 213.543 195.214 212.764 195.993 212.609C196.771 212.453 197.549 212.92 197.783 213.621L204.243 233.702C204.866 235.103 206.578 235.804 208.057 235.181C209.536 234.559 210.237 232.846 209.614 231.367V231.289L199.34 202.49C198.873 201.089 198.328 199.999 197.783 198.987C195.526 195.096 192.801 193.461 188.676 193.461H182.683C178.791 193.539 175.911 195.251 173.654 199.065C173.031 200.155 172.486 201.322 172.019 202.801L162.523 231.679V231.756C162.212 232.457 162.289 233.235 162.523 233.936C162.834 234.636 163.379 235.181 164.08 235.493C164.391 235.648 164.78 235.726 165.169 235.726C166.337 235.726 167.349 235.026 167.816 233.936L173.731 213.465C173.965 212.842 174.51 212.375 175.21 212.375Z" fill="#0870D9"/>
<path d="M184.473 255.497L183.539 276.279C183.461 278.77 181.359 280.793 178.868 280.793H178.635C176.066 280.638 174.043 278.458 174.12 275.89L175.055 255.574H184.473V255.497Z" fill="white"/>
<path d="M178.869 282.35H178.635H178.557C175.132 282.194 172.486 279.237 172.564 275.812L173.498 255.419C173.498 254.563 174.198 253.94 175.055 253.94H184.473C184.862 253.94 185.329 254.096 185.562 254.407C185.874 254.718 186.03 255.107 185.952 255.574L185.018 276.357C184.94 279.704 182.216 282.35 178.869 282.35ZM178.635 279.237H178.791C180.503 279.237 181.904 277.913 181.982 276.201L182.838 257.053H176.533L175.677 275.968C175.599 277.68 176.923 279.159 178.635 279.237Z" fill="#0870D9"/>
<path d="M197.783 276.123C197.861 278.614 196.148 280.949 193.657 281.183C193.502 281.183 193.268 281.183 193.113 281.183C190.622 281.183 188.52 279.159 188.442 276.668L187.586 255.419H197.004L197.783 276.123Z" fill="white"/>
<path d="M193.113 282.817C189.766 282.817 187.041 280.171 186.886 276.824L186.029 255.574C186.029 255.185 186.185 254.718 186.496 254.407C186.808 254.096 187.197 253.94 187.586 253.94H197.004C197.861 253.94 198.483 254.563 198.561 255.419L199.417 276.045C199.573 279.47 197.082 282.35 193.891 282.739C193.58 282.817 193.346 282.817 193.113 282.817ZM189.143 257.053L189.921 276.668C189.999 278.381 191.4 279.704 193.035 279.704C193.19 279.704 193.268 279.704 193.424 279.704C194.981 279.548 196.226 277.991 196.226 276.201L195.448 257.053H189.143Z" fill="#0870D9"/>
<path d="M185.874 187.623C191.591 187.623 196.226 182.988 196.226 177.271C196.226 171.554 191.591 166.919 185.874 166.919C180.156 166.919 175.521 171.554 175.521 177.271C175.521 182.988 180.156 187.623 185.874 187.623Z" fill="white"/>
<path d="M185.874 189.18C179.336 189.18 173.965 183.809 173.965 177.271C173.965 170.733 179.258 165.362 185.874 165.362C192.412 165.362 197.783 170.733 197.783 177.271C197.783 183.809 192.412 189.18 185.874 189.18ZM185.874 168.476C181.048 168.476 177.078 172.445 177.078 177.271C177.078 182.175 181.048 186.067 185.874 186.067C190.7 186.067 194.669 182.097 194.669 177.271C194.669 172.445 190.7 168.476 185.874 168.476Z" fill="#0870D9"/>
<path d="M138.705 226.152C142.986 227.009 147.189 224.284 148.045 219.925C148.901 215.644 146.177 211.441 141.818 210.507C137.537 209.651 133.334 212.375 132.478 216.734C131.7 221.015 134.424 225.218 138.705 226.152Z" fill="white"/>
<path d="M140.339 227.865C139.717 227.865 139.094 227.787 138.394 227.709C133.256 226.697 129.987 221.638 130.999 216.501C131.466 214.01 132.945 211.908 135.047 210.507C137.148 209.106 139.717 208.639 142.208 209.106C147.345 210.118 150.614 215.177 149.602 220.315C149.135 222.805 147.656 224.907 145.555 226.308C143.998 227.32 142.208 227.865 140.339 227.865ZM140.262 211.908C139.016 211.908 137.771 212.297 136.759 212.998C135.358 213.932 134.346 215.411 134.035 217.045C133.334 220.548 135.591 223.895 139.016 224.596C140.651 224.907 142.363 224.596 143.842 223.662C145.243 222.727 146.255 221.249 146.566 219.614C147.267 216.111 145.01 212.764 141.585 212.064C141.196 211.986 140.729 211.908 140.262 211.908Z" fill="#0870D9"/>
<path d="M164.469 226.464C163.457 224.362 160.888 223.584 158.787 224.518L145.632 230.433L136.136 230.511L121.581 226.074C119.324 225.374 116.911 226.542 116.132 228.721C115.354 230.978 116.599 233.469 118.935 234.169L132.634 238.373C132.634 238.606 132.634 238.917 132.634 239.151C132.634 239.151 132.867 253.784 132.867 253.94L130.61 276.824C130.532 279.159 132.322 281.183 134.657 281.26C134.735 281.26 134.813 281.26 134.891 281.26C137.148 281.26 139.016 279.47 139.094 277.135L140.729 259.388C140.729 259.155 141.118 259.155 141.118 259.388L143.219 277.213C143.375 279.47 145.243 281.183 147.5 281.183C147.578 281.183 147.656 281.183 147.812 281.183C150.147 281.027 151.937 279.003 151.704 276.59L148.59 253.473C148.59 253.239 148.435 239.073 148.435 239.073C148.435 238.917 148.435 238.684 148.435 238.528L162.523 232.146C164.624 231.212 165.559 228.643 164.469 226.464Z" fill="white"/>
<path d="M134.891 282.817C134.813 282.817 134.735 282.817 134.657 282.817C131.466 282.662 128.975 280.015 129.053 276.824V276.746L131.31 253.94C131.31 253.006 131.155 243.588 131.077 239.54L118.467 235.648C116.989 235.181 115.743 234.169 115.043 232.768C114.342 231.367 114.186 229.733 114.731 228.254C115.743 225.296 119.012 223.662 122.048 224.596L136.37 228.954L145.321 228.877L158.164 223.039C161.044 221.716 164.547 222.883 165.87 225.685C166.57 227.086 166.648 228.721 166.103 230.2C165.558 231.679 164.469 232.846 163.068 233.547L149.913 239.54C149.991 244.911 150.069 252.539 150.069 253.317L153.182 276.357V276.435C153.416 279.626 151.003 282.428 147.812 282.662C147.656 282.662 147.578 282.662 147.423 282.662C144.387 282.662 141.818 280.326 141.585 277.369L141.04 272.465L140.573 277.291C140.495 280.404 138.004 282.817 134.891 282.817ZM132.167 276.979C132.167 278.458 133.256 279.704 134.735 279.782C134.813 279.782 134.813 279.782 134.891 279.782C136.292 279.782 137.46 278.614 137.537 277.213V277.135L139.172 259.388C139.25 258.454 139.95 257.754 140.884 257.754C141.818 257.754 142.519 258.454 142.597 259.311L144.698 277.057V277.135C144.776 278.536 145.944 279.626 147.345 279.626C147.423 279.626 147.5 279.626 147.5 279.626C148.979 279.548 150.069 278.225 149.991 276.746L146.878 253.706V253.629C146.878 253.395 146.8 248.569 146.722 239.151C146.722 238.995 146.722 238.917 146.722 238.762V238.684C146.644 238.061 147.033 237.439 147.578 237.205C147.578 237.205 147.656 237.205 147.656 237.127L161.744 230.745C162.445 230.433 162.912 229.888 163.146 229.188C163.379 228.487 163.379 227.709 163.068 227.086C162.445 225.763 160.81 225.218 159.409 225.919L146.255 231.834C146.022 231.912 145.866 231.99 145.632 231.99L136.136 232.068C135.981 232.068 135.825 232.068 135.669 231.99L121.114 227.553C119.635 227.086 118.078 227.865 117.611 229.188C117.378 229.888 117.456 230.667 117.767 231.29C118.078 231.912 118.701 232.457 119.402 232.613L133.101 236.816C133.801 237.049 134.268 237.75 134.19 238.45C134.19 238.684 134.19 238.917 134.19 239.073C134.424 253.706 134.424 253.862 134.424 253.94V254.018L132.167 276.979Z" fill="#0870D9"/>
</svg>
