<svg width="30" height="30" viewBox="0 0 30 30" fill="none" xmlns="http://www.w3.org/2000/svg">
<path fill-rule="evenodd" clip-rule="evenodd" d="M3.37119 3.37119C3.47166 3.27073 3.60793 3.21429 3.75 3.21429H6.96429C7.85188 3.21429 8.57143 2.49474 8.57143 1.60714C8.57143 0.719541 7.85188 0 6.96429 0H3.75C2.75544 0 1.80161 0.395089 1.09835 1.09835C0.395089 1.80161 0 2.75544 0 3.75V6.96429C0 7.85188 0.719541 8.57143 1.60714 8.57143C2.49474 8.57143 3.21429 7.85188 3.21429 6.96429V3.75C3.21429 3.60793 3.27073 3.47166 3.37119 3.37119ZM30 23.0357C30 22.1481 29.2804 21.4286 28.3929 21.4286C27.5053 21.4286 26.7857 22.1481 26.7857 23.0357V26.25C26.7857 26.3921 26.7294 26.5284 26.6289 26.6289C26.5284 26.7294 26.3921 26.7857 26.25 26.7857H23.0357C22.1481 26.7857 21.4286 27.5053 21.4286 28.3929C21.4286 29.2804 22.1481 30 23.0357 30H26.25C27.2445 30 28.1983 29.6049 28.9016 28.9016C29.6049 28.1983 30 27.2445 30 26.25V23.0357ZM1.60714 21.4286C2.49474 21.4286 3.21429 22.1481 3.21429 23.0357V26.25C3.21429 26.3921 3.27073 26.5284 3.37119 26.6289C3.47166 26.7294 3.60793 26.7857 3.75 26.7857H6.96429C7.85188 26.7857 8.57143 27.5053 8.57143 28.3929C8.57143 29.2804 7.85188 30 6.96429 30H3.75C2.75544 30 1.80161 29.6049 1.09835 28.9016C0.395089 28.1983 0 27.2445 0 26.25V23.0357C0 22.1481 0.719541 21.4286 1.60714 21.4286ZM23.0357 0C22.1481 0 21.4286 0.719541 21.4286 1.60714C21.4286 2.49474 22.1481 3.21429 23.0357 3.21429H26.25C26.3921 3.21429 26.5284 3.27073 26.6289 3.37119C26.7294 3.47166 26.7857 3.60793 26.7857 3.75V6.96429C26.7857 7.85188 27.5053 8.57143 28.3929 8.57143C29.2804 8.57143 30 7.85188 30 6.96429V3.75C30 2.75544 29.6049 1.80161 28.9016 1.09835C28.1983 0.395089 27.2445 0 26.25 0H23.0357ZM14.998 16.6639C10.9286 16.6639 7.45841 19.2296 6.11696 22.8317C5.87833 23.4724 6.38897 24.1076 7.07278 24.1076H22.9232C23.607 24.1076 24.1176 23.4724 23.8789 22.8317C22.5375 19.2296 19.0674 16.6639 14.998 16.6639ZM19.7316 9.55834C19.7316 12.1745 17.6108 14.2953 14.9947 14.2953C12.3786 14.2953 10.2578 12.1745 10.2578 9.55834C10.2578 6.94221 12.3786 4.82143 14.9947 4.82143C17.6108 4.82143 19.7316 6.94221 19.7316 9.55834Z" fill="white"/>
</svg>
