<svg width="30" height="30" viewBox="0 0 30 30" fill="none" xmlns="http://www.w3.org/2000/svg">
<path d="M27.1875 6.5625H16.875C15.8805 6.5625 14.9266 6.95759 14.2234 7.66085C13.5201 8.36411 13.125 9.31794 13.125 10.3125V15" stroke="white" stroke-width="1.5" stroke-linecap="round" stroke-linejoin="round"/>
<path d="M21.5625 12.1875L27.1875 6.5625L21.5625 0.9375" stroke="white" stroke-width="1.5" stroke-linecap="round" stroke-linejoin="round"/>
<path d="M23.4375 17.8125V27.1875C23.4375 27.6847 23.24 28.1617 22.8884 28.5134C22.5367 28.865 22.0597 29.0625 21.5625 29.0625H4.6875C4.19023 29.0625 3.7133 28.865 3.36168 28.5134C3.01005 28.1617 2.8125 27.6847 2.8125 27.1875V12.1875C2.8125 11.6902 3.01005 11.2133 3.36168 10.8617C3.7133 10.51 4.19023 10.3125 4.6875 10.3125H7.5" stroke="white" stroke-width="1.5" stroke-linecap="round" stroke-linejoin="round"/>
</svg>
