<svg width="26" height="28" viewBox="0 0 26 28" fill="none" xmlns="http://www.w3.org/2000/svg">
<path fill-rule="evenodd" clip-rule="evenodd" d="M13.8243 0.433856C13.6416 0.167787 13.3416 0.00628425 13.0189 0.000179365C12.6962 -0.00592553 12.3904 0.144118 12.1977 0.403086C10.9394 2.09436 9.24824 3.41494 7.30238 4.2257C5.35652 5.03648 3.22802 5.30742 1.1411 5.01C0.854158 4.96912 0.563596 5.05472 0.344672 5.24466C0.125748 5.4346 0 5.71016 0 6V11.5623C0.007706 14.9732 1.04132 18.303 2.9665 21.1188C4.89166 23.9346 7.61936 26.106 10.795 27.351L11.9768 27.8118L11.9889 27.8164C12.6408 28.0608 13.3592 28.0608 14.0111 27.8164L14.0232 27.8118L15.2032 27.3518C18.3788 26.1068 21.1084 23.9346 23.0336 21.1188C24.9586 18.303 25.9922 14.9732 26 11.5623V11.56V6C26 5.72314 25.8852 5.45868 25.683 5.26958C25.4808 5.0805 25.2092 4.9837 24.933 5.00224C19.8348 5.34466 16.0777 3.71482 13.8243 0.433856Z" fill="white"/>
</svg>
