<svg width="26" height="26" viewBox="0 0 26 26" fill="none" xmlns="http://www.w3.org/2000/svg">
<path fill-rule="evenodd" clip-rule="evenodd" d="M13 26C20.1797 26 26 20.1797 26 13C26 5.8203 20.1797 0 13 0C5.8203 0 0 5.8203 0 13C0 20.1797 5.8203 26 13 26ZM10.2143 17.4107C9.57324 17.4107 9.05357 17.9304 9.05357 18.5714C9.05357 19.2125 9.57324 19.7321 10.2143 19.7321H15.7857C16.4268 19.7321 16.9464 19.2125 16.9464 18.5714C16.9464 17.9304 16.4268 17.4107 15.7857 17.4107H14.1607V12.0714C14.1607 11.4304 13.641 10.9107 13 10.9107H11.1429C10.5018 10.9107 9.98214 11.4304 9.98214 12.0714C9.98214 12.7125 10.5018 13.2321 11.1429 13.2321H11.8393V17.4107H10.2143ZM14.8571 7.42857C14.8571 8.45423 14.0257 9.28571 13 9.28571C11.9743 9.28571 11.1429 8.45423 11.1429 7.42857C11.1429 6.40291 11.9743 5.57143 13 5.57143C14.0257 5.57143 14.8571 6.40291 14.8571 7.42857Z" fill="white"/>
</svg>
