<svg width="24" height="26" viewBox="0 0 24 26" fill="none" xmlns="http://www.w3.org/2000/svg">
<path fill-rule="evenodd" clip-rule="evenodd" d="M1.67426 0.817144C2.19618 0.294572 2.90426 0.000651674 3.64283 1.48106e-06H14.7857C14.9077 -0.000216449 15.0286 0.0236182 15.1414 0.0701428C15.2542 0.116667 15.3567 0.18497 15.4431 0.271144L22.8717 7.69972C22.9579 7.78611 23.0262 7.88864 23.0727 8.00144C23.1192 8.11425 23.143 8.23512 23.1428 8.35715V23.2143C23.1428 23.9531 22.8493 24.6617 22.3269 25.1841C21.8045 25.7065 21.0959 26 20.3571 26H3.64283C2.90401 26 2.19546 25.7065 1.67303 25.1841C1.15061 24.6617 0.857117 23.9531 0.857117 23.2143V2.78572C0.857117 2.04657 1.15055 1.33714 1.67426 0.817144ZM10.0871 10.0787C10.0871 9.67757 10.414 9.35072 10.817 9.35072H13.1848C13.586 9.35072 13.9128 9.67757 13.9128 10.0787V12.9759H16.81C17.213 12.9759 17.538 13.3027 17.538 13.7057V16.0736C17.538 16.2667 17.4613 16.4518 17.3247 16.5883C17.1882 16.7249 17.0031 16.8016 16.81 16.8016H13.9128V19.6987C13.9131 19.7945 13.8944 19.8893 13.8579 19.9779C13.8215 20.0664 13.7679 20.1469 13.7003 20.2147C13.6326 20.2825 13.5523 20.3363 13.4639 20.373C13.3754 20.4097 13.2806 20.4286 13.1848 20.4286H10.8151C10.622 20.4286 10.4369 20.3519 10.3003 20.2153C10.1638 20.0788 10.0871 19.8937 10.0871 19.7006V16.8034H7.18997C7.09421 16.8034 6.9994 16.7845 6.91095 16.7478C6.8225 16.7111 6.74217 16.6573 6.67454 16.5895C6.60692 16.5218 6.55333 16.4413 6.51686 16.3527C6.48038 16.2642 6.46173 16.1693 6.46197 16.0736V13.7057C6.46197 13.3027 6.78697 12.9777 7.18997 12.9777H10.0871V10.0787Z" fill="white"/>
</svg>
