<svg width="22" height="22" viewBox="0 0 22 22" fill="none" xmlns="http://www.w3.org/2000/svg">
<path fill-rule="evenodd" clip-rule="evenodd" d="M2.35714 0C1.05533 0 0 1.05533 0 2.35714V19.6429C0 20.9446 1.05533 22 2.35714 22H19.6429C20.9446 22 22 20.9446 22 19.6429V2.35714C22 1.05533 20.9446 0 19.6429 0H2.35714ZM4.64715 15.65C4.64715 14.7096 5.40952 13.9472 6.34994 13.9472C7.29038 13.9472 8.05274 14.7096 8.05274 15.65C8.05274 16.5905 7.29038 17.3528 6.34994 17.3528C5.40952 17.3528 4.64715 16.5905 4.64715 15.65ZM5.3678 10.1475C5.3678 9.60509 5.80753 9.16537 6.34994 9.16537C8.06977 9.16537 9.71918 9.84857 10.9353 11.0647C12.1514 12.2808 12.8346 13.9302 12.8346 15.65C12.8346 16.1925 12.3949 16.6322 11.8524 16.6322C11.31 16.6322 10.8703 16.1925 10.8703 15.65C10.8703 14.4511 10.3941 13.3014 9.54632 12.4536C8.69858 11.6059 7.54881 11.1297 6.34994 11.1297C5.80753 11.1297 5.3678 10.6899 5.3678 10.1475ZM6.34994 4.45073C5.80753 4.45073 5.3678 4.89046 5.3678 5.43287C5.3678 5.97529 5.80753 6.41501 6.34994 6.41501C8.79921 6.41501 11.1482 7.38799 12.8801 9.11988C14.612 10.8518 15.5849 13.2007 15.5849 15.65C15.5849 16.1925 16.0246 16.6322 16.5671 16.6322C17.1096 16.6322 17.5492 16.1925 17.5492 15.65C17.5492 12.6798 16.3693 9.8312 14.269 7.73093C12.1687 5.63065 9.32017 4.45073 6.34994 4.45073Z" fill="white"/>
</svg>
