<svg width="24" height="24" viewBox="0 0 24 24" fill="none" xmlns="http://www.w3.org/2000/svg">
<path fill-rule="evenodd" clip-rule="evenodd" d="M10.4087 0.59433C11.3493 -0.198114 12.6508 -0.198112 13.5915 0.59435L14.7491 1.56969C18.1498 4.43472 21.0629 7.94873 23.3523 11.9471L23.7238 12.5956C24.4654 13.8908 23.6265 15.5839 22.2432 15.5839H21.0307C21.1008 17.3718 21.0128 19.1652 20.7665 20.938C20.522 22.6997 19.1554 24 17.5482 24H14.1924V17.5873C14.1924 16.2444 13.2109 15.1557 12 15.1557C10.7892 15.1557 9.80762 16.2444 9.80762 17.5873V24H6.45191C4.84491 24 3.47818 22.6997 3.23359 20.938C2.98745 19.1652 2.89936 17.3718 2.96952 15.5839H1.75677C0.373476 15.5839 -0.465406 13.8908 0.276198 12.5956L0.647645 11.9469C2.93704 7.94867 5.8503 4.43474 9.25089 1.56979L10.4087 0.59433Z" fill="white"/>
</svg>
