<svg width="24" height="24" viewBox="0 0 24 24" fill="none" xmlns="http://www.w3.org/2000/svg">
<path fill-rule="evenodd" clip-rule="evenodd" d="M22.9313 6.51316C22.7008 6.59793 22.4515 6.61387 22.2124 6.55912C21.9734 6.50437 21.7544 6.38118 21.581 6.20389L20.6291 5.22661L13.3913 12.6437C13.2712 12.7669 13.1285 12.8646 12.9716 12.9313C12.8146 12.9979 12.6463 13.0322 12.4764 13.0322C12.3065 13.0322 12.1382 12.9979 11.9813 12.9313C11.8243 12.8646 11.6817 12.7669 11.5616 12.6437L8.8006 9.81437L2.22328 16.5546C2.10391 16.6812 1.96115 16.7821 1.80332 16.8514C1.64549 16.9208 1.47575 16.9573 1.30402 16.9588C1.13228 16.9602 0.961983 16.9266 0.803061 16.8599C0.64414 16.7931 0.499776 16.6947 0.378394 16.5701C0.257012 16.4456 0.161042 16.2976 0.0960843 16.1347C0.0311264 15.9718 -0.00151851 15.7972 5.42393e-05 15.6212C0.00162699 15.4452 0.0373859 15.2713 0.105245 15.1097C0.173103 14.948 0.271703 14.8018 0.39529 14.6796L7.88316 7.00092C8.00327 6.87775 8.14589 6.78005 8.30286 6.71338C8.45984 6.64672 8.62809 6.61241 8.79801 6.61241C8.96793 6.61241 9.13619 6.64672 9.29317 6.71338C9.45014 6.78005 9.59276 6.87775 9.71287 7.00092L12.4756 9.83204L18.7994 3.35157L17.8474 2.37605C17.6741 2.19863 17.5535 1.9744 17.4996 1.72947C17.4458 1.48453 17.461 1.22897 17.5434 0.992523C17.6258 0.756076 17.772 0.548473 17.965 0.39388C18.1581 0.239286 18.39 0.144061 18.6338 0.119289C20.2083 -0.0397629 21.1137 -0.0397629 22.6295 0.119289C22.9254 0.150635 23.2016 0.2855 23.4118 0.50117C23.6219 0.716839 23.7531 1.00013 23.7832 1.30334C23.9402 2.85498 23.9384 3.78454 23.7832 5.39627C23.759 5.64599 23.666 5.88352 23.5152 6.08124C23.3644 6.27896 23.1619 6.42874 22.9313 6.51316ZM20.1324 9.17816C20.3278 8.98398 20.578 8.85793 20.8474 8.81795C21.1168 8.77797 21.3916 8.8261 21.6328 8.95549L23.309 9.85678C23.5259 9.97376 23.7059 10.1515 23.828 10.3692C23.9501 10.587 24.0094 10.8358 23.9988 11.0868L23.5228 22.7294C23.509 23.0713 23.3667 23.3945 23.1256 23.6314C22.8845 23.8682 22.5634 24.0003 22.2294 24H18.8287C18.7143 24 18.6047 23.9535 18.5238 23.8706C18.443 23.7877 18.3976 23.6754 18.3976 23.5582V11.0885C18.3974 11.0292 18.409 10.9705 18.4315 10.9158C18.454 10.8612 18.4871 10.8117 18.5286 10.7704L20.1324 9.17816ZM16.2419 23.5582C16.2419 23.6754 16.1965 23.7877 16.1156 23.8706C16.0348 23.9535 15.9251 24 15.8108 24H9.34383C9.22948 24 9.11982 23.9535 9.03897 23.8706C8.95812 23.7877 8.9127 23.6754 8.9127 23.5582V13.2835C8.9127 13.2481 8.93856 13.2198 8.97305 13.2234C9.25415 13.2375 9.53007 13.3471 9.75771 13.5503L12.5945 16.1022C12.6759 16.1756 12.7812 16.2149 12.8895 16.2122C12.9979 16.2096 13.1013 16.1653 13.1792 16.0881L15.5107 13.7694C15.5716 13.709 15.6485 13.6683 15.7318 13.6523C15.8152 13.6364 15.9012 13.6461 15.9793 13.68C16.0573 13.714 16.1238 13.7707 16.1705 13.8432C16.2172 13.9157 16.2421 14.0007 16.2419 14.0876V23.5582ZM6.01723 15.671L0.653968 21.2838C0.4166 21.5313 0.283475 21.8645 0.283196 22.2116V22.6746C0.283196 23.4062 0.862635 24 1.57659 24H6.32591C6.44026 24 6.54992 23.9535 6.63077 23.8706C6.71162 23.7877 6.75705 23.6754 6.75705 23.5582V15.9803C6.75721 15.8923 6.73176 15.8064 6.68397 15.7333C6.63618 15.6603 6.56821 15.6036 6.48876 15.5703C6.40931 15.5371 6.322 15.529 6.238 15.5469C6.154 15.5648 6.07713 15.608 6.01723 15.671Z" fill="white"/>
</svg>
