<svg width="25" height="24" viewBox="0 0 25 24" fill="none" xmlns="http://www.w3.org/2000/svg">
<path d="M9.38551 24L8.78551 20.22C8.40553 20.08 8.00551 19.89 7.58551 19.65C7.16551 19.41 6.79549 19.16 6.47551 18.9L2.93551 20.52L0.145508 15.6L3.38551 13.23C3.34551 13.05 3.32051 12.845 3.31051 12.615C3.30051 12.385 3.29551 12.18 3.29551 12C3.29551 11.82 3.30051 11.615 3.31051 11.385C3.32051 11.155 3.34551 10.95 3.38551 10.77L0.145508 8.4L2.93551 3.48L6.47551 5.1C6.79549 4.84002 7.16551 4.59 7.58551 4.35C8.00551 4.11 8.40553 3.93 8.78551 3.81L9.38551 0H14.9055L15.5055 3.78C15.8855 3.91998 16.2905 4.10502 16.7205 4.335C17.1505 4.56498 17.5155 4.81998 17.8155 5.1L21.3555 3.48L24.1455 8.4L20.9055 10.71C20.9455 10.91 20.9705 11.125 20.9805 11.355C20.9905 11.585 20.9955 11.8 20.9955 12C20.9955 12.2 20.9905 12.41 20.9805 12.63C20.9705 12.85 20.9455 13.06 20.9055 13.26L24.1455 15.6L21.3555 20.52L17.8155 18.9C17.4955 19.16 17.1305 19.415 16.7205 19.665C16.3105 19.915 15.9055 20.1 15.5055 20.22L14.9055 24H9.38551ZM12.1455 15.9C13.2255 15.9 14.1455 15.52 14.9055 14.76C15.6655 14 16.0455 13.08 16.0455 12C16.0455 10.92 15.6655 10 14.9055 9.24C14.1455 8.47998 13.2255 8.1 12.1455 8.1C11.0655 8.1 10.1455 8.47998 9.38551 9.24C8.62549 10 8.24551 10.92 8.24551 12C8.24551 13.08 8.62549 14 9.38551 14.76C10.1455 15.52 11.0655 15.9 12.1455 15.9Z" fill="white"/>
</svg>
